<svg width="200" height="200" viewBox="0 0 200 200" fill="none" xmlns="http://www.w3.org/2000/svg">
<path fill-rule="evenodd" clip-rule="evenodd" d="M41.5319 102.566L63.5575 82.1975L63.7419 82.3969L64.056 82.7366L64.3692 83.0752L64.6814 83.4129L64.9928 83.7496L65.3032 84.0853L65.6128 84.42L65.9214 84.7537L66.2291 85.0865L66.5359 85.4182L66.8418 85.749L67.1467 86.0788L67.4508 86.4076L67.754 86.7354L68.0563 87.0623L68.3576 87.3882L68.6581 87.7131L68.9576 88.037L69.2563 88.36L69.5541 88.6819L69.8509 89.003L70.1469 89.323L70.442 89.6421L70.7362 89.9602L71.0294 90.2774L71.3218 90.5935L71.6133 90.9088L71.904 91.223L72.1937 91.5363L72.4825 91.8487L72.7705 92.16L73.0575 92.4705L73.3437 92.7799L73.629 93.0884L73.7417 93.2103L51.7162 113.579C42.5929 122.016 42.0365 136.251 50.4734 145.374C58.9103 154.498 73.1456 155.054 82.2689 146.617L104.294 126.249L104.345 126.303L104.521 126.494L104.697 126.684L104.872 126.873L105.047 127.062L105.22 127.25L105.393 127.437L105.566 127.623L105.737 127.809L105.908 127.993L106.078 128.177L106.248 128.361L106.416 128.543L106.584 128.725L106.751 128.905L106.918 129.086L107.084 129.265L107.249 129.443L107.413 129.621L107.577 129.798L107.74 129.974L107.902 130.15L108.064 130.325L108.225 130.499L108.385 130.672L108.544 130.844L108.703 131.016L108.861 131.187L109.019 131.357L109.175 131.526L109.331 131.695L109.486 131.863L109.641 132.03L109.795 132.197L109.948 132.362L110.101 132.527L110.253 132.691L110.404 132.855L110.554 133.018L110.704 133.18L110.853 133.341L111.001 133.501L111.149 133.661L111.296 133.82L111.442 133.978L111.588 134.136L111.733 134.293L111.877 134.449L112.021 134.604L112.164 134.759L112.306 134.912L112.448 135.066L112.589 135.218L112.729 135.37L112.869 135.521L113.008 135.671L113.146 135.82L113.284 135.969L113.421 136.117L113.557 136.265L113.693 136.411L113.828 136.557L113.962 136.703L114.096 136.847L114.229 136.991L114.361 137.134L114.479 137.261L92.4531 157.63C77.2477 171.691 53.5221 170.764 39.4606 155.559C25.3991 140.353 26.3265 116.628 41.5319 102.566ZM149.588 53.7162C158.025 62.8395 157.469 77.0748 148.346 85.5117L126.32 105.88L126.37 105.934L126.547 106.125L126.723 106.316L126.898 106.505L127.072 106.694L127.246 106.881L127.419 107.068L127.591 107.255L127.763 107.44L127.934 107.625L128.104 107.809L128.273 107.992L128.442 108.175L128.61 108.356L128.777 108.537L128.943 108.717L129.109 108.896L129.274 109.075L129.439 109.253L129.603 109.43L129.766 109.606L129.928 109.781L130.089 109.956L130.25 110.13L130.41 110.303L130.57 110.476L130.729 110.647L130.887 110.818L131.044 110.989L131.201 111.158L131.357 111.327L131.512 111.495L131.667 111.662L131.821 111.828L131.974 111.994L132.126 112.159L132.278 112.323L132.429 112.486L132.58 112.649L132.729 112.811L132.879 112.972L133.027 113.133L133.175 113.292L133.322 113.451L133.468 113.61L133.614 113.767L133.759 113.924L133.903 114.08L134.047 114.235L134.19 114.39L134.332 114.544L134.474 114.697L134.615 114.85L134.755 115.001L134.894 115.152L135.033 115.302L135.172 115.452L135.309 115.601L135.446 115.749L135.583 115.896L135.718 116.043L135.853 116.189L135.988 116.334L136.121 116.479L136.254 116.623L136.386 116.766L136.504 116.893L158.53 96.5245C173.735 82.463 174.663 58.7374 160.601 43.5319C146.54 28.3265 122.814 27.3991 107.609 41.4606L85.5831 61.8291L85.7674 62.0284L86.0815 62.3681L86.3947 62.7067L86.707 63.0444L87.0183 63.3811L87.3288 63.7168L87.6383 64.0515L87.9469 64.3852L88.2546 64.718L88.5614 65.0497L88.8673 65.3805L89.1723 65.7103L89.4764 66.0391L89.7796 66.367L90.0818 66.6938L90.3832 67.0197L90.6836 67.3446L90.9832 67.6685L91.2819 67.9915L91.5796 68.3135L91.8765 68.6345L92.1725 68.9545L92.4675 69.2736L92.7617 69.5917L93.055 69.9089L93.3474 70.2251L93.6389 70.5403L93.9295 70.8545L94.2192 71.1678L94.5081 71.4802L94.796 71.7916L95.0831 72.102L95.3693 72.4114L95.6546 72.72L95.7673 72.8418L117.793 52.4734C126.916 44.0365 141.151 44.5929 149.588 53.7162ZM72.9132 114.407C69.8721 117.22 69.6866 121.965 72.4989 125.006C75.3112 128.047 80.0563 128.232 83.0974 125.42L127.149 84.6832C130.19 81.8709 130.375 77.1257 127.563 74.0847C124.751 71.0436 120.005 70.8581 116.964 73.6704L72.9132 114.407Z" fill="black"/>
<path fill-rule="evenodd" clip-rule="evenodd" d="M41.5319 102.566L63.5575 82.1975L63.7419 82.3969L64.056 82.7366L64.3692 83.0752L64.6814 83.4129L64.9928 83.7496L65.3032 84.0853L65.6128 84.42L65.9214 84.7537L66.2291 85.0865L66.5359 85.4182L66.8418 85.749L67.1467 86.0788L67.4508 86.4076L67.754 86.7354L68.0563 87.0623L68.3576 87.3882L68.6581 87.7131L68.9576 88.037L69.2563 88.36L69.5541 88.6819L69.8509 89.003L70.1469 89.323L70.442 89.6421L70.7362 89.9602L71.0294 90.2774L71.3218 90.5935L71.6133 90.9088L71.904 91.223L72.1937 91.5363L72.4825 91.8487L72.7705 92.16L73.0575 92.4705L73.3437 92.7799L73.629 93.0884L73.7417 93.2103L51.7162 113.579C42.5929 122.016 42.0365 136.251 50.4734 145.374C58.9103 154.498 73.1456 155.054 82.2689 146.617L104.294 126.249L104.345 126.303L104.521 126.494L104.697 126.684L104.872 126.873L105.047 127.062L105.22 127.25L105.393 127.437L105.566 127.623L105.737 127.809L105.908 127.993L106.078 128.177L106.248 128.361L106.416 128.543L106.584 128.725L106.751 128.905L106.918 129.086L107.084 129.265L107.249 129.443L107.413 129.621L107.577 129.798L107.74 129.974L107.902 130.15L108.064 130.325L108.225 130.499L108.385 130.672L108.544 130.844L108.703 131.016L108.861 131.187L109.019 131.357L109.175 131.526L109.331 131.695L109.486 131.863L109.641 132.03L109.795 132.197L109.948 132.362L110.101 132.527L110.253 132.691L110.404 132.855L110.554 133.018L110.704 133.18L110.853 133.341L111.001 133.501L111.149 133.661L111.296 133.82L111.442 133.978L111.588 134.136L111.733 134.293L111.877 134.449L112.021 134.604L112.164 134.759L112.306 134.912L112.448 135.066L112.589 135.218L112.729 135.37L112.869 135.521L113.008 135.671L113.146 135.82L113.284 135.969L113.421 136.117L113.557 136.265L113.693 136.411L113.828 136.557L113.962 136.703L114.096 136.847L114.229 136.991L114.361 137.134L114.479 137.261L92.4531 157.63C77.2477 171.691 53.5221 170.764 39.4606 155.559C25.3991 140.353 26.3265 116.628 41.5319 102.566ZM149.588 53.7162C158.025 62.8395 157.469 77.0748 148.346 85.5117L126.32 105.88L126.37 105.934L126.547 106.125L126.723 106.316L126.898 106.505L127.072 106.694L127.246 106.881L127.419 107.068L127.591 107.255L127.763 107.44L127.934 107.625L128.104 107.809L128.273 107.992L128.442 108.175L128.61 108.356L128.777 108.537L128.943 108.717L129.109 108.896L129.274 109.075L129.439 109.253L129.603 109.43L129.766 109.606L129.928 109.781L130.089 109.956L130.25 110.13L130.41 110.303L130.57 110.476L130.729 110.647L130.887 110.818L131.044 110.989L131.201 111.158L131.357 111.327L131.512 111.495L131.667 111.662L131.821 111.828L131.974 111.994L132.126 112.159L132.278 112.323L132.429 112.486L132.58 112.649L132.729 112.811L132.879 112.972L133.027 113.133L133.175 113.292L133.322 113.451L133.468 113.61L133.614 113.767L133.759 113.924L133.903 114.08L134.047 114.235L134.19 114.39L134.332 114.544L134.474 114.697L134.615 114.85L134.755 115.001L134.894 115.152L135.033 115.302L135.172 115.452L135.309 115.601L135.446 115.749L135.583 115.896L135.718 116.043L135.853 116.189L135.988 116.334L136.121 116.479L136.254 116.623L136.386 116.766L136.504 116.893L158.53 96.5245C173.735 82.463 174.663 58.7374 160.601 43.5319C146.54 28.3265 122.814 27.3991 107.609 41.4606L85.5831 61.8291L85.7674 62.0284L86.0815 62.3681L86.3947 62.7067L86.707 63.0444L87.0183 63.3811L87.3288 63.7168L87.6383 64.0515L87.9469 64.3852L88.2546 64.718L88.5614 65.0497L88.8673 65.3805L89.1723 65.7103L89.4764 66.0391L89.7796 66.367L90.0818 66.6938L90.3832 67.0197L90.6836 67.3446L90.9832 67.6685L91.2819 67.9915L91.5796 68.3135L91.8765 68.6345L92.1725 68.9545L92.4675 69.2736L92.7617 69.5917L93.055 69.9089L93.3474 70.2251L93.6389 70.5403L93.9295 70.8545L94.2192 71.1678L94.5081 71.4802L94.796 71.7916L95.0831 72.102L95.3693 72.4114L95.6546 72.72L95.7673 72.8418L117.793 52.4734C126.916 44.0365 141.151 44.5929 149.588 53.7162ZM72.9132 114.407C69.8721 117.22 69.6866 121.965 72.4989 125.006C75.3112 128.047 80.0563 128.232 83.0974 125.42L127.149 84.6832C130.19 81.8709 130.375 77.1257 127.563 74.0847C124.751 71.0436 120.005 70.8581 116.964 73.6704L72.9132 114.407Z" fill="#203EDF" fill-opacity="0.3"/>
<path fill-rule="evenodd" clip-rule="evenodd" d="M41.5319 102.566L63.5575 82.1975L63.7419 82.3969L64.056 82.7366L64.3692 83.0752L64.6814 83.4129L64.9928 83.7496L65.3032 84.0853L65.6128 84.42L65.9214 84.7537L66.2291 85.0865L66.5359 85.4182L66.8418 85.749L67.1467 86.0788L67.4508 86.4076L67.754 86.7354L68.0563 87.0623L68.3576 87.3882L68.6581 87.7131L68.9576 88.037L69.2563 88.36L69.5541 88.6819L69.8509 89.003L70.1469 89.323L70.442 89.6421L70.7362 89.9602L71.0294 90.2774L71.3218 90.5935L71.6133 90.9088L71.904 91.223L72.1937 91.5363L72.4825 91.8487L72.7705 92.16L73.0575 92.4705L73.3437 92.7799L73.629 93.0884L73.7417 93.2103L51.7162 113.579C42.5929 122.016 42.0365 136.251 50.4734 145.374C58.9103 154.498 73.1456 155.054 82.2689 146.617L104.294 126.249L104.345 126.303L104.521 126.494L104.697 126.684L104.872 126.873L105.047 127.062L105.22 127.25L105.393 127.437L105.566 127.623L105.737 127.809L105.908 127.993L106.078 128.177L106.248 128.361L106.416 128.543L106.584 128.725L106.751 128.905L106.918 129.086L107.084 129.265L107.249 129.443L107.413 129.621L107.577 129.798L107.74 129.974L107.902 130.15L108.064 130.325L108.225 130.499L108.385 130.672L108.544 130.844L108.703 131.016L108.861 131.187L109.019 131.357L109.175 131.526L109.331 131.695L109.486 131.863L109.641 132.03L109.795 132.197L109.948 132.362L110.101 132.527L110.253 132.691L110.404 132.855L110.554 133.018L110.704 133.18L110.853 133.341L111.001 133.501L111.149 133.661L111.296 133.82L111.442 133.978L111.588 134.136L111.733 134.293L111.877 134.449L112.021 134.604L112.164 134.759L112.306 134.912L112.448 135.066L112.589 135.218L112.729 135.37L112.869 135.521L113.008 135.671L113.146 135.82L113.284 135.969L113.421 136.117L113.557 136.265L113.693 136.411L113.828 136.557L113.962 136.703L114.096 136.847L114.229 136.991L114.361 137.134L114.479 137.261L92.4531 157.63C77.2477 171.691 53.5221 170.764 39.4606 155.559C25.3991 140.353 26.3265 116.628 41.5319 102.566ZM149.588 53.7162C158.025 62.8395 157.469 77.0748 148.346 85.5117L126.32 105.88L126.37 105.934L126.547 106.125L126.723 106.316L126.898 106.505L127.072 106.694L127.246 106.881L127.419 107.068L127.591 107.255L127.763 107.44L127.934 107.625L128.104 107.809L128.273 107.992L128.442 108.175L128.61 108.356L128.777 108.537L128.943 108.717L129.109 108.896L129.274 109.075L129.439 109.253L129.603 109.43L129.766 109.606L129.928 109.781L130.089 109.956L130.25 110.13L130.41 110.303L130.57 110.476L130.729 110.647L130.887 110.818L131.044 110.989L131.201 111.158L131.357 111.327L131.512 111.495L131.667 111.662L131.821 111.828L131.974 111.994L132.126 112.159L132.278 112.323L132.429 112.486L132.58 112.649L132.729 112.811L132.879 112.972L133.027 113.133L133.175 113.292L133.322 113.451L133.468 113.61L133.614 113.767L133.759 113.924L133.903 114.08L134.047 114.235L134.19 114.39L134.332 114.544L134.474 114.697L134.615 114.85L134.755 115.001L134.894 115.152L135.033 115.302L135.172 115.452L135.309 115.601L135.446 115.749L135.583 115.896L135.718 116.043L135.853 116.189L135.988 116.334L136.121 116.479L136.254 116.623L136.386 116.766L136.504 116.893L158.53 96.5245C173.735 82.463 174.663 58.7374 160.601 43.5319C146.54 28.3265 122.814 27.3991 107.609 41.4606L85.5831 61.8291L85.7674 62.0284L86.0815 62.3681L86.3947 62.7067L86.707 63.0444L87.0183 63.3811L87.3288 63.7168L87.6383 64.0515L87.9469 64.3852L88.2546 64.718L88.5614 65.0497L88.8673 65.3805L89.1723 65.7103L89.4764 66.0391L89.7796 66.367L90.0818 66.6938L90.3832 67.0197L90.6836 67.3446L90.9832 67.6685L91.2819 67.9915L91.5796 68.3135L91.8765 68.6345L92.1725 68.9545L92.4675 69.2736L92.7617 69.5917L93.055 69.9089L93.3474 70.2251L93.6389 70.5403L93.9295 70.8545L94.2192 71.1678L94.5081 71.4802L94.796 71.7916L95.0831 72.102L95.3693 72.4114L95.6546 72.72L95.7673 72.8418L117.793 52.4734C126.916 44.0365 141.151 44.5929 149.588 53.7162ZM72.9132 114.407C69.8721 117.22 69.6866 121.965 72.4989 125.006C75.3112 128.047 80.0563 128.232 83.0974 125.42L127.149 84.6832C130.19 81.8709 130.375 77.1257 127.563 74.0847C124.751 71.0436 120.005 70.8581 116.964 73.6704L72.9132 114.407Z" fill="white" fill-opacity="0.05"/>
</svg>
