<svg width="64" height="64" viewBox="0 0 64 64" fill="none" xmlns="http://www.w3.org/2000/svg">
<path d="M5.752 37.24C4.30133 37.24 3.10667 36.7707 2.168 35.832C1.22933 34.8933 0.76 33.7413 0.76 32.376C0.76 31.0107 1.22933 29.9013 2.168 29.048C3.10667 28.1093 4.30133 27.64 5.752 27.64H58.232C59.6827 27.64 60.8773 28.1093 61.816 29.048C62.7547 29.9867 63.224 31.1387 63.224 32.504C63.224 33.8693 62.7547 35.0213 61.816 35.96C60.8773 36.8133 59.6827 37.24 58.232 37.24H5.752ZM31.864 63.992C30.328 63.992 29.0053 63.48 27.896 62.456C26.872 61.432 26.36 60.152 26.36 58.616V5.752C26.36 4.13067 26.872 2.808 27.896 1.784C29.0053 0.759995 30.3707 0.247993 31.992 0.247993C33.6133 0.247993 34.8933 0.759995 35.832 1.784C36.856 2.808 37.368 4.13067 37.368 5.752V58.488C37.368 60.1093 36.856 61.432 35.832 62.456C34.808 63.48 33.4853 63.992 31.864 63.992Z" fill="#4CAF50"/>
</svg>
