<svg width="194" height="259" viewBox="0 0 194 259" fill="none" xmlns="http://www.w3.org/2000/svg">
<path d="M64.0758 179.939V110C64.0758 104.477 59.5988 100 54.076 100H23.5758C3.97581 100 7.74247 89.6667 12.0758 84.5L97.7503 2.97105C101.783 -0.866297 108.172 -0.672476 111.965 3.40217C136.04 29.2685 176.336 72.5354 187.576 84.5C199.976 97.7 191.076 100.333 185.076 100H154.076C148.553 100 144.076 104.477 144.076 110V156C144.076 161.833 140.776 181.5 127.576 213.5C114.376 245.5 80.7425 257.167 65.5758 259H10.0597C8.74988 259 7.44135 258.766 6.2743 258.171C-0.791481 254.571 -6.65919 247.139 16.5758 240.5C41.0532 233.506 57.7626 200.159 63.5884 182.978C63.9206 181.999 64.0758 180.973 64.0758 179.939Z" fill="#4CAF50"/>
</svg>
