<svg width="64" height="73" viewBox="0 0 64 73" fill="none" xmlns="http://www.w3.org/2000/svg">
<rect width="47" height="56" rx="5" fill="#1BB7EA"/>
<mask id="mask0_304_12" style="mask-type:alpha" maskUnits="userSpaceOnUse" x="10" y="9" width="45" height="55">
<path d="M55 9V52.8991L42.6374 64H10V9H55Z" fill="#C4C4C4"/>
</mask>
<g mask="url(#mask0_304_12)">
<rect x="10" y="9" width="45" height="55" rx="5" fill="#DADEE0"/>
</g>
<rect x="21" y="20" width="23" height="2" rx="1" fill="#1F4254"/>
<rect x="21" y="28" width="23" height="2" rx="1" fill="#1F4254"/>
<rect x="21" y="36" width="23" height="2" rx="1" fill="#1F4254"/>
<rect x="21" y="44" width="13" height="2" rx="1" fill="#1F4254"/>
<path d="M42.1649 51.9815C42.1642 51.6828 42.4237 51.4502 42.7205 51.4834L53.4904 52.689C53.9196 52.737 54.0901 53.27 53.7685 53.5582L43.0232 63.1898C42.7016 63.4781 42.1904 63.2505 42.1895 62.8186L42.1649 51.9815Z" fill="#F1F1F1" fill-opacity="0.75"/>
<path fill-rule="evenodd" clip-rule="evenodd" d="M26.0167 51.8568L31.6301 46.2434L31.6809 46.2942L31.7674 46.3808L31.8537 46.4671L31.9398 46.5532L32.0256 46.639L32.1112 46.7245L32.1965 46.8098L32.2815 46.8949L32.3663 46.9797L32.4509 47.0642L32.5352 47.1485L32.6192 47.2326L32.703 47.3164L32.7866 47.3999L32.8699 47.4832L32.9529 47.5663L33.0357 47.6491L33.1183 47.7316L33.2006 47.814L33.2826 47.896L33.3645 47.9778L33.446 48.0594L33.5273 48.1407L33.6084 48.2218L33.6892 48.3026L33.7698 48.3832L33.8502 48.4635L33.9303 48.5436L34.0101 48.6235L34.0897 48.7031L34.1691 48.7824L34.2482 48.8615L34.327 48.9404L34.4057 49.019L34.4367 49.0501L28.8234 54.6635C26.4982 56.9886 26.4982 60.7584 28.8234 63.0835C31.1485 65.4086 34.9183 65.4086 37.2434 63.0835L42.8568 57.4701L42.8706 57.4839L42.9192 57.5326L42.9677 57.5811L43.016 57.6294L43.0641 57.6774L43.1119 57.7253L43.1596 57.773L43.2071 57.8205L43.2544 57.8677L43.3014 57.9148L43.3483 57.9617L43.395 58.0084L43.4415 58.0549L43.4878 58.1012L43.5339 58.1472L43.5798 58.1931L43.6255 58.2388L43.671 58.2843L43.7163 58.3297L43.7614 58.3748L43.8063 58.4197L43.851 58.4644L43.8956 58.5089L43.9399 58.5533L43.984 58.5974L44.028 58.6414L44.0717 58.6851L44.1153 58.7287L44.1587 58.772L44.2019 58.8152L44.2448 58.8582L44.2876 58.901L44.3302 58.9436L44.3727 58.986L44.4149 59.0282L44.4569 59.0703L44.4988 59.1121L44.5404 59.1538L44.5819 59.1952L44.6231 59.2365L44.6642 59.2776L44.7051 59.3185L44.7458 59.3592L44.7864 59.3997L44.8267 59.4401L44.8668 59.4802L44.9068 59.5202L44.9466 59.5599L44.9862 59.5995L45.0256 59.6389L45.0648 59.6782L45.1038 59.7172L45.1427 59.756L45.1813 59.7947L45.2198 59.8332L45.2581 59.8715L45.2962 59.9096L45.3341 59.9475L45.3719 59.9852L45.4094 60.0228L45.4468 60.0602L45.484 60.0974L45.521 60.1344L45.5579 60.1712L45.5945 60.2079L45.631 60.2444L45.6634 60.2768L40.0501 65.8902C36.1749 69.7654 29.8919 69.7654 26.0167 65.8902C22.1415 62.015 22.1415 55.732 26.0167 51.8568ZM54.0835 37.8234C56.4086 40.1485 56.4086 43.9183 54.0835 46.2434L48.4701 51.8568L48.4839 51.8706L48.5326 51.9193L48.5811 51.9677L48.6293 52.016L48.6774 52.0641L48.7253 52.1119L48.773 52.1596L48.8204 52.2071L48.8677 52.2544L48.9148 52.3015L48.9617 52.3483L49.0084 52.395L49.0549 52.4415L49.1011 52.4878L49.1472 52.5339L49.1931 52.5798L49.2388 52.6255L49.2843 52.671L49.3296 52.7163L49.3748 52.7614L49.4197 52.8063L49.4644 52.851L49.5089 52.8956L49.5533 52.9399L49.5974 52.9841L49.6413 53.028L49.6851 53.0718L49.7287 53.1153L49.772 53.1587L49.8152 53.2019L49.8582 53.2449L49.901 53.2876L49.9436 53.3303L49.986 53.3727L50.0282 53.4149L50.0703 53.4569L50.1121 53.4988L50.1538 53.5404L50.1952 53.5819L50.2365 53.6232L50.2776 53.6642L50.3185 53.7051L50.3592 53.7458L50.3997 53.7864L50.4401 53.8267L50.4802 53.8669L50.5202 53.9068L50.5599 53.9466L50.5995 53.9862L50.6389 54.0256L50.6781 54.0648L50.7172 54.1038L50.756 54.1427L50.7947 54.1813L50.8332 54.2198L50.8715 54.2581L50.9096 54.2962L50.9475 54.3341L50.9852 54.3719L51.0228 54.4095L51.0602 54.4468L51.0974 54.484L51.1344 54.521L51.1712 54.5579L51.2079 54.5945L51.2444 54.631L51.2768 54.6635L56.8902 49.0501C60.7654 45.1749 60.7654 38.8919 56.8902 35.0167C53.0149 31.1415 46.732 31.1415 42.8568 35.0167L37.2434 40.6301L37.2942 40.6809L37.3808 40.7674L37.4671 40.8537L37.5532 40.9398L37.639 41.0256L37.7245 41.1112L37.8098 41.1965L37.8949 41.2815L37.9797 41.3663L38.0642 41.4509L38.1485 41.5352L38.2326 41.6192L38.3164 41.703L38.3999 41.7866L38.4832 41.8699L38.5663 41.9529L38.6491 42.0357L38.7316 42.1183L38.8139 42.2006L38.896 42.2827L38.9778 42.3645L39.0594 42.446L39.1407 42.5274L39.2218 42.6084L39.3026 42.6893L39.3832 42.7698L39.4635 42.8502L39.5436 42.9303L39.6235 43.0101L39.7031 43.0897L39.7824 43.1691L39.8615 43.2482L39.9404 43.3271L40.019 43.4057L40.0501 43.4367L45.6634 37.8234C47.9886 35.4983 51.7584 35.4983 54.0835 37.8234ZM34.4367 54.6635C33.6617 55.4385 33.6617 56.6951 34.4367 57.4701C35.2118 58.2452 36.4684 58.2452 37.2434 57.4701L48.4701 46.2434C49.2452 45.4684 49.2452 44.2118 48.4701 43.4367C47.6951 42.6617 46.4385 42.6617 45.6634 43.4367L34.4367 54.6635Z" fill="black"/>
<path fill-rule="evenodd" clip-rule="evenodd" d="M26.0167 51.8568L31.6301 46.2434L31.6809 46.2942L31.7674 46.3808L31.8537 46.4671L31.9398 46.5532L32.0256 46.639L32.1112 46.7245L32.1965 46.8098L32.2815 46.8949L32.3663 46.9797L32.4509 47.0642L32.5352 47.1485L32.6192 47.2326L32.703 47.3164L32.7866 47.3999L32.8699 47.4832L32.9529 47.5663L33.0357 47.6491L33.1183 47.7316L33.2006 47.814L33.2826 47.896L33.3645 47.9778L33.446 48.0594L33.5273 48.1407L33.6084 48.2218L33.6892 48.3026L33.7698 48.3832L33.8502 48.4635L33.9303 48.5436L34.0101 48.6235L34.0897 48.7031L34.1691 48.7824L34.2482 48.8615L34.327 48.9404L34.4057 49.019L34.4367 49.0501L28.8234 54.6635C26.4982 56.9886 26.4982 60.7584 28.8234 63.0835C31.1485 65.4086 34.9183 65.4086 37.2434 63.0835L42.8568 57.4701L42.8706 57.4839L42.9192 57.5326L42.9677 57.5811L43.016 57.6294L43.0641 57.6774L43.1119 57.7253L43.1596 57.773L43.2071 57.8205L43.2544 57.8677L43.3014 57.9148L43.3483 57.9617L43.395 58.0084L43.4415 58.0549L43.4878 58.1012L43.5339 58.1472L43.5798 58.1931L43.6255 58.2388L43.671 58.2843L43.7163 58.3297L43.7614 58.3748L43.8063 58.4197L43.851 58.4644L43.8956 58.5089L43.9399 58.5533L43.984 58.5974L44.028 58.6414L44.0717 58.6851L44.1153 58.7287L44.1587 58.772L44.2019 58.8152L44.2448 58.8582L44.2876 58.901L44.3302 58.9436L44.3727 58.986L44.4149 59.0282L44.4569 59.0703L44.4988 59.1121L44.5404 59.1538L44.5819 59.1952L44.6231 59.2365L44.6642 59.2776L44.7051 59.3185L44.7458 59.3592L44.7864 59.3997L44.8267 59.4401L44.8668 59.4802L44.9068 59.5202L44.9466 59.5599L44.9862 59.5995L45.0256 59.6389L45.0648 59.6782L45.1038 59.7172L45.1427 59.756L45.1813 59.7947L45.2198 59.8332L45.2581 59.8715L45.2962 59.9096L45.3341 59.9475L45.3719 59.9852L45.4094 60.0228L45.4468 60.0602L45.484 60.0974L45.521 60.1344L45.5579 60.1712L45.5945 60.2079L45.631 60.2444L45.6634 60.2768L40.0501 65.8902C36.1749 69.7654 29.8919 69.7654 26.0167 65.8902C22.1415 62.015 22.1415 55.732 26.0167 51.8568ZM54.0835 37.8234C56.4086 40.1485 56.4086 43.9183 54.0835 46.2434L48.4701 51.8568L48.4839 51.8706L48.5326 51.9193L48.5811 51.9677L48.6293 52.016L48.6774 52.0641L48.7253 52.1119L48.773 52.1596L48.8204 52.2071L48.8677 52.2544L48.9148 52.3015L48.9617 52.3483L49.0084 52.395L49.0549 52.4415L49.1011 52.4878L49.1472 52.5339L49.1931 52.5798L49.2388 52.6255L49.2843 52.671L49.3296 52.7163L49.3748 52.7614L49.4197 52.8063L49.4644 52.851L49.5089 52.8956L49.5533 52.9399L49.5974 52.9841L49.6413 53.028L49.6851 53.0718L49.7287 53.1153L49.772 53.1587L49.8152 53.2019L49.8582 53.2449L49.901 53.2876L49.9436 53.3303L49.986 53.3727L50.0282 53.4149L50.0703 53.4569L50.1121 53.4988L50.1538 53.5404L50.1952 53.5819L50.2365 53.6232L50.2776 53.6642L50.3185 53.7051L50.3592 53.7458L50.3997 53.7864L50.4401 53.8267L50.4802 53.8669L50.5202 53.9068L50.5599 53.9466L50.5995 53.9862L50.6389 54.0256L50.6781 54.0648L50.7172 54.1038L50.756 54.1427L50.7947 54.1813L50.8332 54.2198L50.8715 54.2581L50.9096 54.2962L50.9475 54.3341L50.9852 54.3719L51.0228 54.4095L51.0602 54.4468L51.0974 54.484L51.1344 54.521L51.1712 54.5579L51.2079 54.5945L51.2444 54.631L51.2768 54.6635L56.8902 49.0501C60.7654 45.1749 60.7654 38.8919 56.8902 35.0167C53.0149 31.1415 46.732 31.1415 42.8568 35.0167L37.2434 40.6301L37.2942 40.6809L37.3808 40.7674L37.4671 40.8537L37.5532 40.9398L37.639 41.0256L37.7245 41.1112L37.8098 41.1965L37.8949 41.2815L37.9797 41.3663L38.0642 41.4509L38.1485 41.5352L38.2326 41.6192L38.3164 41.703L38.3999 41.7866L38.4832 41.8699L38.5663 41.9529L38.6491 42.0357L38.7316 42.1183L38.8139 42.2006L38.896 42.2827L38.9778 42.3645L39.0594 42.446L39.1407 42.5274L39.2218 42.6084L39.3026 42.6893L39.3832 42.7698L39.4635 42.8502L39.5436 42.9303L39.6235 43.0101L39.7031 43.0897L39.7824 43.1691L39.8615 43.2482L39.9404 43.3271L40.019 43.4057L40.0501 43.4367L45.6634 37.8234C47.9886 35.4983 51.7584 35.4983 54.0835 37.8234ZM34.4367 54.6635C33.6617 55.4385 33.6617 56.6951 34.4367 57.4701C35.2118 58.2452 36.4684 58.2452 37.2434 57.4701L48.4701 46.2434C49.2452 45.4684 49.2452 44.2118 48.4701 43.4367C47.6951 42.6617 46.4385 42.6617 45.6634 43.4367L34.4367 54.6635Z" fill="#203EDF" fill-opacity="0.3"/>
<path fill-rule="evenodd" clip-rule="evenodd" d="M26.0167 51.8568L31.6301 46.2434L31.6809 46.2942L31.7674 46.3808L31.8537 46.4671L31.9398 46.5532L32.0256 46.639L32.1112 46.7245L32.1965 46.8098L32.2815 46.8949L32.3663 46.9797L32.4509 47.0642L32.5352 47.1485L32.6192 47.2326L32.703 47.3164L32.7866 47.3999L32.8699 47.4832L32.9529 47.5663L33.0357 47.6491L33.1183 47.7316L33.2006 47.814L33.2826 47.896L33.3645 47.9778L33.446 48.0594L33.5273 48.1407L33.6084 48.2218L33.6892 48.3026L33.7698 48.3832L33.8502 48.4635L33.9303 48.5436L34.0101 48.6235L34.0897 48.7031L34.1691 48.7824L34.2482 48.8615L34.327 48.9404L34.4057 49.019L34.4367 49.0501L28.8234 54.6635C26.4982 56.9886 26.4982 60.7584 28.8234 63.0835C31.1485 65.4086 34.9183 65.4086 37.2434 63.0835L42.8568 57.4701L42.8706 57.4839L42.9192 57.5326L42.9677 57.5811L43.016 57.6294L43.0641 57.6774L43.1119 57.7253L43.1596 57.773L43.2071 57.8205L43.2544 57.8677L43.3014 57.9148L43.3483 57.9617L43.395 58.0084L43.4415 58.0549L43.4878 58.1012L43.5339 58.1472L43.5798 58.1931L43.6255 58.2388L43.671 58.2843L43.7163 58.3297L43.7614 58.3748L43.8063 58.4197L43.851 58.4644L43.8956 58.5089L43.9399 58.5533L43.984 58.5974L44.028 58.6414L44.0717 58.6851L44.1153 58.7287L44.1587 58.772L44.2019 58.8152L44.2448 58.8582L44.2876 58.901L44.3302 58.9436L44.3727 58.986L44.4149 59.0282L44.4569 59.0703L44.4988 59.1121L44.5404 59.1538L44.5819 59.1952L44.6231 59.2365L44.6642 59.2776L44.7051 59.3185L44.7458 59.3592L44.7864 59.3997L44.8267 59.4401L44.8668 59.4802L44.9068 59.5202L44.9466 59.5599L44.9862 59.5995L45.0256 59.6389L45.0648 59.6782L45.1038 59.7172L45.1427 59.756L45.1813 59.7947L45.2198 59.8332L45.2581 59.8715L45.2962 59.9096L45.3341 59.9475L45.3719 59.9852L45.4094 60.0228L45.4468 60.0602L45.484 60.0974L45.521 60.1344L45.5579 60.1712L45.5945 60.2079L45.631 60.2444L45.6634 60.2768L40.0501 65.8902C36.1749 69.7654 29.8919 69.7654 26.0167 65.8902C22.1415 62.015 22.1415 55.732 26.0167 51.8568ZM54.0835 37.8234C56.4086 40.1485 56.4086 43.9183 54.0835 46.2434L48.4701 51.8568L48.4839 51.8706L48.5326 51.9193L48.5811 51.9677L48.6293 52.016L48.6774 52.0641L48.7253 52.1119L48.773 52.1596L48.8204 52.2071L48.8677 52.2544L48.9148 52.3015L48.9617 52.3483L49.0084 52.395L49.0549 52.4415L49.1011 52.4878L49.1472 52.5339L49.1931 52.5798L49.2388 52.6255L49.2843 52.671L49.3296 52.7163L49.3748 52.7614L49.4197 52.8063L49.4644 52.851L49.5089 52.8956L49.5533 52.9399L49.5974 52.9841L49.6413 53.028L49.6851 53.0718L49.7287 53.1153L49.772 53.1587L49.8152 53.2019L49.8582 53.2449L49.901 53.2876L49.9436 53.3303L49.986 53.3727L50.0282 53.4149L50.0703 53.4569L50.1121 53.4988L50.1538 53.5404L50.1952 53.5819L50.2365 53.6232L50.2776 53.6642L50.3185 53.7051L50.3592 53.7458L50.3997 53.7864L50.4401 53.8267L50.4802 53.8669L50.5202 53.9068L50.5599 53.9466L50.5995 53.9862L50.6389 54.0256L50.6781 54.0648L50.7172 54.1038L50.756 54.1427L50.7947 54.1813L50.8332 54.2198L50.8715 54.2581L50.9096 54.2962L50.9475 54.3341L50.9852 54.3719L51.0228 54.4095L51.0602 54.4468L51.0974 54.484L51.1344 54.521L51.1712 54.5579L51.2079 54.5945L51.2444 54.631L51.2768 54.6635L56.8902 49.0501C60.7654 45.1749 60.7654 38.8919 56.8902 35.0167C53.0149 31.1415 46.732 31.1415 42.8568 35.0167L37.2434 40.6301L37.2942 40.6809L37.3808 40.7674L37.4671 40.8537L37.5532 40.9398L37.639 41.0256L37.7245 41.1112L37.8098 41.1965L37.8949 41.2815L37.9797 41.3663L38.0642 41.4509L38.1485 41.5352L38.2326 41.6192L38.3164 41.703L38.3999 41.7866L38.4832 41.8699L38.5663 41.9529L38.6491 42.0357L38.7316 42.1183L38.8139 42.2006L38.896 42.2827L38.9778 42.3645L39.0594 42.446L39.1407 42.5274L39.2218 42.6084L39.3026 42.6893L39.3832 42.7698L39.4635 42.8502L39.5436 42.9303L39.6235 43.0101L39.7031 43.0897L39.7824 43.1691L39.8615 43.2482L39.9404 43.3271L40.019 43.4057L40.0501 43.4367L45.6634 37.8234C47.9886 35.4983 51.7584 35.4983 54.0835 37.8234ZM34.4367 54.6635C33.6617 55.4385 33.6617 56.6951 34.4367 57.4701C35.2118 58.2452 36.4684 58.2452 37.2434 57.4701L48.4701 46.2434C49.2452 45.4684 49.2452 44.2118 48.4701 43.4367C47.6951 42.6617 46.4385 42.6617 45.6634 43.4367L34.4367 54.6635Z" fill="white" fill-opacity="0.05"/>
</svg>
