<svg width="135" height="170" viewBox="0 0 135 170" fill="none" xmlns="http://www.w3.org/2000/svg">
<path d="M134.289 153.148C134.289 161.985 127.125 169.148 118.289 169.148L15.9999 169.148C7.16334 169.148 -0.000106812 161.985 -0.000106812 153.148L-0.000106812 36.3268L21.6309 36.3268C30.4674 36.3268 37.6309 29.1634 37.6309 20.3268V0H118.289C127.125 0 134.289 7.16345 134.289 16L134.289 153.148Z" fill="#D0F7FF"/>
<path d="M37.6581 0.321297L0.158035 36.3213C14.8027 36.3213 31.8801 42.8213 37.6581 36.3213C43.436 29.8214 39.3496 11.9078 37.6581 0.321297Z" fill="#55FFEB"/>
<path d="M98.0449 72.5225L66.5225 41L35 72.5225" stroke="#161F4C" stroke-width="15" stroke-miterlimit="10" stroke-linecap="round" stroke-linejoin="round"/>
<path d="M66.5229 129.284V41.8828" stroke="#161F4C" stroke-width="15" stroke-miterlimit="10" stroke-linecap="round" stroke-linejoin="round"/>
</svg>
