<svg width="77" height="75" viewBox="0 0 77 75" fill="none" xmlns="http://www.w3.org/2000/svg">
    <path d="M75.44 42.0739C77.4395 40.1694 77.5166 37.0045 75.6121 35.0049L44.5762 2.42004C42.6717 0.42047 39.5068 0.343411 37.5072 2.24793C35.5077 4.15244 35.4306 7.31733 37.3351 9.3169L64.9226 38.2813L35.9582 65.8687C33.9586 67.7732 33.8816 70.9381 35.7861 72.9377C37.6906 74.9372 40.8555 75.0143 42.8551 73.1098L75.44 42.0739ZM5.13309 31.824C2.37248 31.7568 0.0800796 33.9402 0.0128641 36.7008C-0.0543514 39.4614 2.12907 41.7538 4.88968 41.821L5.13309 31.824ZM72.1132 33.4549L5.13309 31.824L4.88968 41.821L71.8698 43.4519L72.1132 33.4549Z"
          fill="#4CAF50"/>
</svg>
