<svg width="200" height="200" viewBox="0 0 200 200" fill="none" xmlns="http://www.w3.org/2000/svg">
    <path d="M5 41H195V162C195 170.284 188.284 177 180 177H20C11.7157 177 5 170.284 5 162V41Z" fill="#FCD462"/>
    <path d="M5 37C5 28.7157 11.7157 22 20 22H76V41H5V37Z" fill="#F6C358"/>
    <path d="M94 41L76 22V41H94Z" fill="#F6C358"/>
    <rect x="5" y="41" width="21" height="18" fill="#F6C358"/>
    <rect x="26" y="41" width="142" height="18" fill="#EBF0F3"/>
    <path d="M136 22H180C188.284 22 195 28.7157 195 37V59H136V22Z" fill="#FCD462"/>
    <path d="M136 59V22L108 59H136Z" fill="#FCD462"/>
    <ellipse cx="101" cy="154.5" rx="43" ry="5.5" fill="#E0D359"/>
    <path d="M74.5005 91.1439V131.956C74.5005 135.144 76.4145 137.644 79.695 137.644H83.9775C83.8305 137.644 83.5005 138.726 83.5005 139.257V150.816C83.5005 153.837 86.397 156.286 89.5005 156.286C92.6056 156.286 95.5006 153.837 95.5006 150.816V139.257C95.5006 138.726 94.9216 137.644 94.7791 137.644H105.225C105.083 137.644 104.501 138.726 104.501 139.257V150.816C104.501 153.837 107.391 156.286 110.495 156.286C113.606 156.286 116.501 153.837 116.501 150.816V139.257C116.501 138.726 116.172 137.644 116.025 137.644H120.314C123.594 137.644 125.501 135.144 125.501 131.956V91.1439H74.157H74.5005Z"
          fill="#57C927"/>
    <path d="M64 91.8082C60.8935 91.8082 58 94.2592 58 97.2787V120.701C58 123.722 60.8935 126.172 64 126.172C67.105 126.172 70 123.722 70 120.701V97.2802C70 94.2592 67.105 91.8082 64 91.8082Z"
          fill="#57C927"/>
    <path d="M112.913 69.8857L113.96 68.3497L115.009 66.8317L117.344 63.4192C117.637 62.9962 117.515 62.4322 117.085 62.1547C116.659 61.8712 116.069 61.9897 115.79 62.4097L112.225 67.6042L111.152 69.1687C107.764 67.8877 103.988 67.1737 99.9997 67.1737C96.0202 67.1737 92.2372 67.8892 88.8487 69.1687L87.7822 67.6057L86.7277 66.0712L84.2227 62.4127C83.9332 61.9912 83.3512 61.8802 82.9192 62.1577C82.4917 62.4367 82.3732 63.0007 82.6582 63.4222L84.9922 66.8362L86.0407 68.3557L87.0937 69.8872C79.1377 73.4947 73.7542 80.6437 73.7542 88.1438H126.247C126.247 80.6437 120.865 73.4947 112.913 69.8857ZM88.7512 80.8612C87.1927 80.8612 85.9372 79.6357 85.9372 78.1222C85.9372 76.6087 87.1927 75.3892 88.7512 75.3892C90.3052 75.3892 91.5637 76.6087 91.5637 78.1222C91.5637 79.6357 90.3067 80.8612 88.7512 80.8612ZM111.251 80.8612C109.694 80.8612 108.436 79.6357 108.436 78.1222C108.436 76.6087 109.694 75.3892 111.251 75.3892C112.805 75.3892 114.064 76.6087 114.064 78.1222C114.064 79.6357 112.805 80.8612 111.251 80.8612Z"
          fill="#57C927"/>
    <path d="M64.267 104.036C61.9285 104.036 59.5 101.83 58 98.3304V120.703C58 123.724 60.8935 126.173 64 126.173C67.105 126.173 70 123.724 70 120.703V99.4974C68.5 102.308 66.331 104.036 64.267 104.036Z"
          fill="#1CB71C"/>
    <path d="M135.999 91.8082C132.893 91.8082 129.999 94.2592 129.999 97.2787V120.701C129.999 123.722 132.893 126.172 135.999 126.172C139.104 126.172 141.999 123.722 141.999 120.701V97.2802C141.999 94.2592 139.104 91.8082 135.999 91.8082Z"
          fill="#57C927"/>
    <path d="M136.267 104.036C133.929 104.036 131.5 101.83 130 98.3304V120.703C130 123.724 132.894 126.173 136 126.173C139.105 126.173 142 123.724 142 120.703V99.4974C140.5 102.308 138.331 104.036 136.267 104.036Z"
          fill="#1CB71C"/>
    <path d="M100 95.6257C88.1351 95.6257 77.5 94.2532 74.5 92.3047V131.956C74.5 135.143 76.414 137.644 79.6945 137.644H83.977C83.83 137.644 83.5 138.725 83.5 139.256V150.815C83.5 153.836 86.3965 156.286 89.5001 156.286C92.6051 156.286 95.5001 153.836 95.5001 150.815V139.256C95.5001 138.725 94.9211 137.644 94.7786 137.644H105.225C105.082 137.644 104.5 138.725 104.5 139.256V150.815C104.5 153.836 107.391 156.286 110.494 156.286C113.605 156.286 116.5 153.836 116.5 150.815V139.256C116.5 138.725 116.172 137.644 116.025 137.644H120.313C123.594 137.644 125.5 135.143 125.5 131.956V92.3032C122.5 94.2517 111.867 95.6257 100 95.6257Z"
          fill="#1CB71C"/>
    <path d="M114.064 78.1207C114.064 79.6342 112.805 80.8597 111.251 80.8597C109.694 80.8597 108.436 79.6342 108.436 78.1207C108.436 77.3002 108.812 76.5757 109.399 76.0747C106.433 75.5797 103.279 75.3082 99.9997 75.3082C96.7207 75.3082 93.5677 75.5797 90.6007 76.0747C91.1887 76.5742 91.5652 77.3002 91.5652 78.1207C91.5652 79.6342 90.3067 80.8597 88.7527 80.8597C87.1942 80.8597 85.9387 79.6342 85.9387 78.1207C85.9387 77.7337 86.0242 77.3662 86.1727 77.0317C81.6757 78.2137 77.8117 79.9387 74.8957 82.0582C74.1607 83.9887 73.7542 86.6437 73.7542 88.1437H126.247C126.247 86.6437 125.84 83.9902 125.107 82.0612C122.192 79.9387 118.327 78.2107 113.833 77.0287C113.98 77.3632 114.064 77.7352 114.064 78.1207Z"
          fill="#1CB71C"/>
    <path d="M100 111.278C89.8946 111.278 80.5 109.285 74.5 106.018V131.956C74.5 135.143 76.414 137.644 79.6945 137.644H83.977C83.83 137.644 83.5 138.726 83.5 139.257V150.816C83.5 153.837 86.3965 156.286 89.5001 156.286C92.6051 156.286 95.5001 153.837 95.5001 150.816V139.257C95.5001 138.726 94.9211 137.644 94.7786 137.644H105.225C105.082 137.644 104.5 138.726 104.5 139.257V150.816C104.5 153.837 107.391 156.286 110.494 156.286C113.605 156.286 116.5 153.837 116.5 150.816V139.257C116.5 138.726 116.172 137.644 116.025 137.644H120.313C123.594 137.644 125.5 135.143 125.5 131.956V106.018C119.5 109.286 110.106 111.278 100 111.278Z"
          fill="#049E42"/>
</svg>
