<svg width="256" height="256" viewBox="0 0 256 256" fill="none" xmlns="http://www.w3.org/2000/svg">
    <rect x="72" y="26" width="111" height="203" rx="20" fill="#324D5B"/>
    <rect x="84" y="55" width="87" height="142" fill="#3F5E6D"/>
    <rect x="116" y="36" width="23" height="5" rx="2.5" fill="#99A6AD"/>
    <rect x="116" y="208" width="23" height="10" rx="5" fill="#99A6AD"/>
    <path fill-rule="evenodd" clip-rule="evenodd"
          d="M128.113 57.3499C123.876 57.3499 120.103 59.5393 117.985 63.215L53.9225 175.043C51.8399 178.692 51.8577 183.044 53.967 186.685C56.0763 190.325 59.8499 192.505 64.0596 192.505H192.068C196.269 192.505 200.042 190.325 202.152 186.685C204.27 183.044 204.288 178.692 202.187 175.043L138.241 63.215C136.132 59.5393 132.358 57.3499 128.113 57.3499M192.068 205.855H64.0594C55.0348 205.855 46.9448 201.192 42.4147 193.377C37.8846 185.572 37.8579 176.236 42.3346 168.413L106.414 56.5757C110.918 48.6992 119.026 44 128.113 44H128.122C137.2 44 145.325 48.7081 149.829 56.5935L213.784 168.413C218.261 176.236 218.234 185.572 213.704 193.377C209.174 201.192 201.084 205.855 192.068 205.855"
          fill="#FF0000"/>
    <path fill-rule="evenodd" clip-rule="evenodd"
          d="M128.035 143.36C124.35 143.36 121.36 140.369 121.36 136.685V109.095C121.36 105.41 124.35 102.42 128.035 102.42C131.719 102.42 134.71 105.41 134.71 109.095V136.685C134.71 140.369 131.719 143.36 128.035 143.36"
          fill="#FF0000"/>
    <path fill-rule="evenodd" clip-rule="evenodd"
          d="M128.053 173.041C123.131 173.041 119.109 169.063 119.109 164.141C119.109 159.219 123.051 155.241 127.964 155.241H128.053C132.975 155.241 136.953 159.219 136.953 164.141C136.953 169.063 132.975 173.041 128.053 173.041"
          fill="#FF0000"/>
</svg>
