<svg width="256" height="256" viewBox="0 0 256 256" fill="none" xmlns="http://www.w3.org/2000/svg">
<rect x="58" y="23" width="140.257" height="172.223" rx="5" fill="#1BB7EA"/>
<path d="M87.842 55.6787C87.842 52.9173 90.0806 50.6787 92.842 50.6787H217.131C219.892 50.6787 222.131 52.9173 222.131 55.6787V183.5H189.5C186.739 183.5 184.5 185.739 184.5 188.5V219.827H92.842C90.0806 219.827 87.842 217.588 87.842 214.827V55.6787Z" fill="#DADEE0"/>
<rect x="120.668" y="84.5084" width="68.6366" height="6.15084" rx="3.07542" fill="#1F4254"/>
<rect x="120.668" y="109.112" width="68.6366" height="6.15084" rx="3.07542" fill="#1F4254"/>
<rect x="120.668" y="133.715" width="68.6366" height="6.15084" rx="3.07542" fill="#1F4254"/>
<rect x="120.668" y="158.318" width="38.7946" height="6.15084" rx="3.07542" fill="#1F4254"/>
<path d="M184.5 219.5L222 183.5H184.5V219.5Z" fill="#F1F1F1"/>
</svg>
