<svg width="256" height="256" viewBox="0 0 256 256" fill="none" xmlns="http://www.w3.org/2000/svg">
<path d="M195.289 196.148C195.289 204.985 188.125 212.148 179.289 212.148L77 212.148C68.1635 212.148 61 204.985 61 196.148L61 79.3268L82.631 79.3268C91.4675 79.3268 98.631 72.1634 98.631 63.3268V43H179.289C188.125 43 195.289 50.1634 195.289 59L195.289 196.148Z" fill="#FFDAAA"/>
<path d="M119.966 133.081C119.966 131.631 120.435 130.436 121.374 129.497C122.398 128.473 123.635 127.961 125.086 127.961C128.841 127.791 132.211 126.98 135.198 125.529C138.185 123.993 140.531 121.86 142.238 119.129C144.03 116.313 144.926 112.985 144.926 109.145C144.926 105.561 144.115 102.404 142.494 99.6733C140.958 96.9426 138.825 94.8093 136.094 93.2733C133.449 91.7373 130.462 90.9693 127.134 90.9693C123.977 90.9693 121.033 91.6519 118.302 93.0173C115.571 94.3826 113.225 96.1746 111.262 98.3933C110.323 99.3319 109.214 99.9719 107.934 100.313C106.739 100.655 105.502 100.399 104.222 99.5453C102.771 98.5213 101.961 97.3266 101.79 95.9613C101.705 94.5106 102.217 93.1879 103.326 91.9933C106.142 88.5799 109.641 85.8919 113.822 83.9293C118.003 81.8813 122.441 80.8573 127.134 80.8573C132.339 80.8573 137.075 82.0519 141.342 84.4413C145.609 86.8306 149.022 90.1586 151.582 94.4253C154.142 98.6066 155.422 103.513 155.422 109.145C155.422 112.9 154.739 116.356 153.374 119.513C152.094 122.671 150.259 125.487 147.87 127.961C145.481 130.351 142.707 132.271 139.55 133.721C136.393 135.172 132.979 136.068 129.31 136.409C129.054 136.409 129.054 136.409 129.31 136.409C129.566 136.324 129.822 136.196 130.078 136.025V146.521C130.078 147.972 129.609 149.209 128.67 150.233C127.731 151.257 126.537 151.769 125.086 151.769C123.55 151.769 122.313 151.257 121.374 150.233C120.435 149.209 119.966 147.972 119.966 146.521V133.081ZM124.83 175.321C123.038 175.321 121.673 174.809 120.734 173.785C119.795 172.676 119.326 171.225 119.326 169.433V166.873C119.326 165.081 119.795 163.673 120.734 162.649C121.673 161.625 123.038 161.113 124.83 161.113H125.982C127.774 161.113 129.139 161.625 130.078 162.649C131.017 163.673 131.486 165.081 131.486 166.873V169.433C131.486 171.225 131.017 172.676 130.078 173.785C129.139 174.809 127.774 175.321 125.982 175.321H124.83Z" fill="#957856"/>
<path d="M98.6581 43.3213L61.158 79.3213C75.8027 79.3213 92.8801 85.8213 98.6581 79.3213C104.436 72.8214 100.35 54.9078 98.6581 43.3213Z" fill="#FFB655"/>
</svg>
