<svg width="256" height="256" viewBox="0 0 256 256" fill="none" xmlns="http://www.w3.org/2000/svg">
<path d="M33 69H223V190C223 198.284 216.284 205 208 205H48C39.7157 205 33 198.284 33 190V69Z" fill="#FCD462"/>
<path d="M33 65C33 56.7157 39.7157 50 48 50H104V69H33V65Z" fill="#F6C358"/>
<path d="M122 69L104 50V69H122Z" fill="#F6C358"/>
<rect x="33" y="69" width="21" height="18" fill="#F6C358"/>
<rect x="54" y="69" width="142" height="18" fill="#EBF0F3"/>
<path d="M164 50H208C216.284 50 223 56.7157 223 65V87H164V50Z" fill="#FCD462"/>
<path d="M164 87V50L136 87H164Z" fill="#FCD462"/>
<path fill-rule="evenodd" clip-rule="evenodd" d="M128.028 179.549L147.25 161.772L147.411 161.946L147.685 162.243L147.959 162.538L148.231 162.833L148.503 163.127L148.774 163.42L149.044 163.712L149.313 164.003L149.582 164.294L149.849 164.583L150.116 164.872L150.383 165.16L150.648 165.447L150.913 165.733L151.176 166.018L151.439 166.302L151.702 166.586L151.963 166.869L152.224 167.151L152.484 167.432L152.743 167.712L153.001 167.991L153.258 168.269L153.515 168.547L153.771 168.824L154.026 169.1L154.281 169.375L154.534 169.649L154.787 169.923L155.039 170.195L155.291 170.467L155.541 170.738L155.791 171.008L156.04 171.277L156.138 171.384L136.916 189.16C128.954 196.523 128.468 208.946 135.831 216.908C143.194 224.871 155.618 225.356 163.58 217.993L182.802 200.217L182.846 200.264L183 200.431L183.154 200.597L183.307 200.762L183.459 200.927L183.61 201.091L183.761 201.254L183.912 201.417L184.062 201.579L184.211 201.74L184.359 201.9L184.507 202.06L184.654 202.219L184.801 202.378L184.947 202.536L185.092 202.693L185.237 202.849L185.381 203.005L185.524 203.16L185.667 203.315L185.809 203.469L185.951 203.622L186.092 203.774L186.232 203.926L186.372 204.077L186.511 204.228L186.65 204.378L186.788 204.527L186.925 204.675L187.062 204.823L187.198 204.97L187.334 205.117L187.469 205.263L187.603 205.408L187.737 205.553L187.87 205.697L188.002 205.84L188.134 205.982L188.265 206.124L188.396 206.266L188.526 206.406L188.656 206.547L188.785 206.686L188.913 206.825L189.041 206.963L189.168 207.1L189.294 207.237L189.42 207.373L189.546 207.509L189.67 207.644L189.795 207.778L189.918 207.912L190.041 208.045L190.164 208.177L190.286 208.309L190.407 208.44L190.528 208.571L190.648 208.7L190.767 208.83L190.886 208.958L191.004 209.086L191.122 209.214L191.24 209.34L191.356 209.467L191.472 209.592L191.588 209.717L191.69 209.828L172.468 227.604C159.198 239.876 138.492 239.067 126.22 225.797C113.948 212.526 114.758 191.82 128.028 179.549ZM222.332 136.916C229.695 144.878 229.209 157.302 221.247 164.665L202.025 182.441L202.068 182.488L202.223 182.655L202.376 182.821L202.529 182.986L202.681 183.151L202.833 183.315L202.984 183.478L203.134 183.641L203.284 183.802L203.433 183.964L203.581 184.124L203.729 184.284L203.876 184.443L204.023 184.602L204.169 184.76L204.314 184.917L204.459 185.073L204.603 185.229L204.747 185.384L204.889 185.539L205.032 185.693L205.173 185.846L205.314 185.998L205.455 186.15L205.595 186.301L205.734 186.452L205.872 186.601L206.01 186.751L206.148 186.899L206.284 187.047L206.42 187.194L206.556 187.341L206.691 187.487L206.825 187.632L206.959 187.776L207.092 187.92L207.225 188.064L207.356 188.206L207.488 188.348L207.618 188.49L207.749 188.63L207.878 188.77L208.007 188.91L208.135 189.049L208.263 189.187L208.39 189.324L208.517 189.461L208.643 189.597L208.768 189.733L208.893 189.868L209.017 190.002L209.141 190.136L209.264 190.269L209.386 190.401L209.508 190.533L209.629 190.664L209.75 190.794L209.87 190.924L209.989 191.054L210.108 191.182L210.227 191.31L210.345 191.438L210.462 191.564L210.578 191.69L210.695 191.816L210.81 191.941L210.913 192.052L230.135 174.276C243.405 162.004 244.215 141.298 231.943 128.028C219.671 114.758 198.965 113.948 185.695 126.22L166.472 143.996L166.633 144.17L166.908 144.467L167.181 144.762L167.453 145.057L167.725 145.351L167.996 145.644L168.266 145.936L168.536 146.227L168.804 146.518L169.072 146.807L169.339 147.096L169.605 147.384L169.87 147.671L170.135 147.957L170.399 148.242L170.662 148.526L170.924 148.81L171.185 149.093L171.446 149.374L171.706 149.655L171.965 149.936L172.223 150.215L172.481 150.493L172.737 150.771L172.993 151.048L173.249 151.324L173.503 151.599L173.757 151.873L174.01 152.146L174.262 152.419L174.513 152.691L174.763 152.962L175.013 153.232L175.262 153.501L175.361 153.607L194.583 135.831C202.545 128.468 214.969 128.954 222.332 136.916ZM155.415 189.883C152.761 192.337 152.599 196.478 155.054 199.132C157.508 201.786 161.649 201.948 164.303 199.494L202.748 163.942C205.402 161.487 205.564 157.346 203.109 154.692C200.655 152.038 196.514 151.876 193.86 154.331L155.415 189.883Z" fill="black"/>
<path fill-rule="evenodd" clip-rule="evenodd" d="M128.028 179.549L147.25 161.772L147.411 161.946L147.685 162.243L147.959 162.538L148.231 162.833L148.503 163.127L148.774 163.42L149.044 163.712L149.313 164.003L149.582 164.294L149.849 164.583L150.116 164.872L150.383 165.16L150.648 165.447L150.913 165.733L151.176 166.018L151.439 166.302L151.702 166.586L151.963 166.869L152.224 167.151L152.484 167.432L152.743 167.712L153.001 167.991L153.258 168.269L153.515 168.547L153.771 168.824L154.026 169.1L154.281 169.375L154.534 169.649L154.787 169.923L155.039 170.195L155.291 170.467L155.541 170.738L155.791 171.008L156.04 171.277L156.138 171.384L136.916 189.16C128.954 196.523 128.468 208.946 135.831 216.908C143.194 224.871 155.618 225.356 163.58 217.993L182.802 200.217L182.846 200.264L183 200.431L183.154 200.597L183.307 200.762L183.459 200.927L183.61 201.091L183.761 201.254L183.912 201.417L184.062 201.579L184.211 201.74L184.359 201.9L184.507 202.06L184.654 202.219L184.801 202.378L184.947 202.536L185.092 202.693L185.237 202.849L185.381 203.005L185.524 203.16L185.667 203.315L185.809 203.469L185.951 203.622L186.092 203.774L186.232 203.926L186.372 204.077L186.511 204.228L186.65 204.378L186.788 204.527L186.925 204.675L187.062 204.823L187.198 204.97L187.334 205.117L187.469 205.263L187.603 205.408L187.737 205.553L187.87 205.697L188.002 205.84L188.134 205.982L188.265 206.124L188.396 206.266L188.526 206.406L188.656 206.547L188.785 206.686L188.913 206.825L189.041 206.963L189.168 207.1L189.294 207.237L189.42 207.373L189.546 207.509L189.67 207.644L189.795 207.778L189.918 207.912L190.041 208.045L190.164 208.177L190.286 208.309L190.407 208.44L190.528 208.571L190.648 208.7L190.767 208.83L190.886 208.958L191.004 209.086L191.122 209.214L191.24 209.34L191.356 209.467L191.472 209.592L191.588 209.717L191.69 209.828L172.468 227.604C159.198 239.876 138.492 239.067 126.22 225.797C113.948 212.526 114.758 191.82 128.028 179.549ZM222.332 136.916C229.695 144.878 229.209 157.302 221.247 164.665L202.025 182.441L202.068 182.488L202.223 182.655L202.376 182.821L202.529 182.986L202.681 183.151L202.833 183.315L202.984 183.478L203.134 183.641L203.284 183.802L203.433 183.964L203.581 184.124L203.729 184.284L203.876 184.443L204.023 184.602L204.169 184.76L204.314 184.917L204.459 185.073L204.603 185.229L204.747 185.384L204.889 185.539L205.032 185.693L205.173 185.846L205.314 185.998L205.455 186.15L205.595 186.301L205.734 186.452L205.872 186.601L206.01 186.751L206.148 186.899L206.284 187.047L206.42 187.194L206.556 187.341L206.691 187.487L206.825 187.632L206.959 187.776L207.092 187.92L207.225 188.064L207.356 188.206L207.488 188.348L207.618 188.49L207.749 188.63L207.878 188.77L208.007 188.91L208.135 189.049L208.263 189.187L208.39 189.324L208.517 189.461L208.643 189.597L208.768 189.733L208.893 189.868L209.017 190.002L209.141 190.136L209.264 190.269L209.386 190.401L209.508 190.533L209.629 190.664L209.75 190.794L209.87 190.924L209.989 191.054L210.108 191.182L210.227 191.31L210.345 191.438L210.462 191.564L210.578 191.69L210.695 191.816L210.81 191.941L210.913 192.052L230.135 174.276C243.405 162.004 244.215 141.298 231.943 128.028C219.671 114.758 198.965 113.948 185.695 126.22L166.472 143.996L166.633 144.17L166.908 144.467L167.181 144.762L167.453 145.057L167.725 145.351L167.996 145.644L168.266 145.936L168.536 146.227L168.804 146.518L169.072 146.807L169.339 147.096L169.605 147.384L169.87 147.671L170.135 147.957L170.399 148.242L170.662 148.526L170.924 148.81L171.185 149.093L171.446 149.374L171.706 149.655L171.965 149.936L172.223 150.215L172.481 150.493L172.737 150.771L172.993 151.048L173.249 151.324L173.503 151.599L173.757 151.873L174.01 152.146L174.262 152.419L174.513 152.691L174.763 152.962L175.013 153.232L175.262 153.501L175.361 153.607L194.583 135.831C202.545 128.468 214.969 128.954 222.332 136.916ZM155.415 189.883C152.761 192.337 152.599 196.478 155.054 199.132C157.508 201.786 161.649 201.948 164.303 199.494L202.748 163.942C205.402 161.487 205.564 157.346 203.109 154.692C200.655 152.038 196.514 151.876 193.86 154.331L155.415 189.883Z" fill="#203EDF" fill-opacity="0.3"/>
<path fill-rule="evenodd" clip-rule="evenodd" d="M128.028 179.549L147.25 161.772L147.411 161.946L147.685 162.243L147.959 162.538L148.231 162.833L148.503 163.127L148.774 163.42L149.044 163.712L149.313 164.003L149.582 164.294L149.849 164.583L150.116 164.872L150.383 165.16L150.648 165.447L150.913 165.733L151.176 166.018L151.439 166.302L151.702 166.586L151.963 166.869L152.224 167.151L152.484 167.432L152.743 167.712L153.001 167.991L153.258 168.269L153.515 168.547L153.771 168.824L154.026 169.1L154.281 169.375L154.534 169.649L154.787 169.923L155.039 170.195L155.291 170.467L155.541 170.738L155.791 171.008L156.04 171.277L156.138 171.384L136.916 189.16C128.954 196.523 128.468 208.946 135.831 216.908C143.194 224.871 155.618 225.356 163.58 217.993L182.802 200.217L182.846 200.264L183 200.431L183.154 200.597L183.307 200.762L183.459 200.927L183.61 201.091L183.761 201.254L183.912 201.417L184.062 201.579L184.211 201.74L184.359 201.9L184.507 202.06L184.654 202.219L184.801 202.378L184.947 202.536L185.092 202.693L185.237 202.849L185.381 203.005L185.524 203.16L185.667 203.315L185.809 203.469L185.951 203.622L186.092 203.774L186.232 203.926L186.372 204.077L186.511 204.228L186.65 204.378L186.788 204.527L186.925 204.675L187.062 204.823L187.198 204.97L187.334 205.117L187.469 205.263L187.603 205.408L187.737 205.553L187.87 205.697L188.002 205.84L188.134 205.982L188.265 206.124L188.396 206.266L188.526 206.406L188.656 206.547L188.785 206.686L188.913 206.825L189.041 206.963L189.168 207.1L189.294 207.237L189.42 207.373L189.546 207.509L189.67 207.644L189.795 207.778L189.918 207.912L190.041 208.045L190.164 208.177L190.286 208.309L190.407 208.44L190.528 208.571L190.648 208.7L190.767 208.83L190.886 208.958L191.004 209.086L191.122 209.214L191.24 209.34L191.356 209.467L191.472 209.592L191.588 209.717L191.69 209.828L172.468 227.604C159.198 239.876 138.492 239.067 126.22 225.797C113.948 212.526 114.758 191.82 128.028 179.549ZM222.332 136.916C229.695 144.878 229.209 157.302 221.247 164.665L202.025 182.441L202.068 182.488L202.223 182.655L202.376 182.821L202.529 182.986L202.681 183.151L202.833 183.315L202.984 183.478L203.134 183.641L203.284 183.802L203.433 183.964L203.581 184.124L203.729 184.284L203.876 184.443L204.023 184.602L204.169 184.76L204.314 184.917L204.459 185.073L204.603 185.229L204.747 185.384L204.889 185.539L205.032 185.693L205.173 185.846L205.314 185.998L205.455 186.15L205.595 186.301L205.734 186.452L205.872 186.601L206.01 186.751L206.148 186.899L206.284 187.047L206.42 187.194L206.556 187.341L206.691 187.487L206.825 187.632L206.959 187.776L207.092 187.92L207.225 188.064L207.356 188.206L207.488 188.348L207.618 188.49L207.749 188.63L207.878 188.77L208.007 188.91L208.135 189.049L208.263 189.187L208.39 189.324L208.517 189.461L208.643 189.597L208.768 189.733L208.893 189.868L209.017 190.002L209.141 190.136L209.264 190.269L209.386 190.401L209.508 190.533L209.629 190.664L209.75 190.794L209.87 190.924L209.989 191.054L210.108 191.182L210.227 191.31L210.345 191.438L210.462 191.564L210.578 191.69L210.695 191.816L210.81 191.941L210.913 192.052L230.135 174.276C243.405 162.004 244.215 141.298 231.943 128.028C219.671 114.758 198.965 113.948 185.695 126.22L166.472 143.996L166.633 144.17L166.908 144.467L167.181 144.762L167.453 145.057L167.725 145.351L167.996 145.644L168.266 145.936L168.536 146.227L168.804 146.518L169.072 146.807L169.339 147.096L169.605 147.384L169.87 147.671L170.135 147.957L170.399 148.242L170.662 148.526L170.924 148.81L171.185 149.093L171.446 149.374L171.706 149.655L171.965 149.936L172.223 150.215L172.481 150.493L172.737 150.771L172.993 151.048L173.249 151.324L173.503 151.599L173.757 151.873L174.01 152.146L174.262 152.419L174.513 152.691L174.763 152.962L175.013 153.232L175.262 153.501L175.361 153.607L194.583 135.831C202.545 128.468 214.969 128.954 222.332 136.916ZM155.415 189.883C152.761 192.337 152.599 196.478 155.054 199.132C157.508 201.786 161.649 201.948 164.303 199.494L202.748 163.942C205.402 161.487 205.564 157.346 203.109 154.692C200.655 152.038 196.514 151.876 193.86 154.331L155.415 189.883Z" fill="white" fill-opacity="0.05"/>
</svg>
