<svg width="256" height="256" viewBox="0 0 256 256" fill="none" xmlns="http://www.w3.org/2000/svg">
<path d="M195.289 196.148C195.289 204.985 188.125 212.148 179.289 212.148L77 212.148C68.1635 212.148 61 204.985 61 196.148L61 79.3268L82.631 79.3268C91.4675 79.3268 98.631 72.1634 98.631 63.3268V43H179.289C188.125 43 195.289 50.1635 195.289 59L195.289 196.148Z" fill="#FFDAAA"/>
<path d="M119.966 133.081C119.966 131.631 120.435 130.436 121.374 129.497C122.398 128.473 123.635 127.961 125.086 127.961C128.841 127.791 132.211 126.98 135.198 125.529C138.185 123.993 140.531 121.86 142.238 119.129C144.03 116.313 144.926 112.985 144.926 109.145C144.926 105.561 144.115 102.404 142.494 99.6733C140.958 96.9426 138.825 94.8093 136.094 93.2733C133.449 91.7373 130.462 90.9693 127.134 90.9693C123.977 90.9693 121.033 91.6519 118.302 93.0173C115.571 94.3826 113.225 96.1746 111.262 98.3933C110.323 99.3319 109.214 99.9719 107.934 100.313C106.739 100.655 105.502 100.399 104.222 99.5453C102.771 98.5213 101.961 97.3266 101.79 95.9613C101.705 94.5106 102.217 93.1879 103.326 91.9933C106.142 88.5799 109.641 85.8919 113.822 83.9293C118.003 81.8813 122.441 80.8573 127.134 80.8573C132.339 80.8573 137.075 82.0519 141.342 84.4413C145.609 86.8306 149.022 90.1586 151.582 94.4253C154.142 98.6066 155.422 103.513 155.422 109.145C155.422 112.9 154.739 116.356 153.374 119.513C152.094 122.671 150.259 125.487 147.87 127.961C145.481 130.351 142.707 132.271 139.55 133.721C136.393 135.172 132.979 136.068 129.31 136.409C129.054 136.409 129.054 136.409 129.31 136.409C129.566 136.324 129.822 136.196 130.078 136.025V146.521C130.078 147.972 129.609 149.209 128.67 150.233C127.731 151.257 126.537 151.769 125.086 151.769C123.55 151.769 122.313 151.257 121.374 150.233C120.435 149.209 119.966 147.972 119.966 146.521V133.081ZM124.83 175.321C123.038 175.321 121.673 174.809 120.734 173.785C119.795 172.676 119.326 171.225 119.326 169.433V166.873C119.326 165.081 119.795 163.673 120.734 162.649C121.673 161.625 123.038 161.113 124.83 161.113H125.982C127.774 161.113 129.139 161.625 130.078 162.649C131.017 163.673 131.486 165.081 131.486 166.873V169.433C131.486 171.225 131.017 172.676 130.078 173.785C129.139 174.809 127.774 175.321 125.982 175.321H124.83Z" fill="#957856"/>
<path d="M98.6581 43.3213L61.158 79.3213C75.8027 79.3213 92.8801 85.8213 98.6581 79.3213C104.436 72.8214 100.35 54.9078 98.6581 43.3213Z" fill="#FFB655"/>
<path fill-rule="evenodd" clip-rule="evenodd" d="M120.028 182.549L139.25 164.772L139.411 164.946L139.685 165.243L139.959 165.538L140.231 165.833L140.503 166.127L140.774 166.42L141.044 166.712L141.313 167.003L141.582 167.294L141.849 167.583L142.116 167.872L142.383 168.16L142.648 168.447L142.913 168.733L143.176 169.018L143.439 169.302L143.702 169.586L143.963 169.869L144.224 170.151L144.484 170.432L144.743 170.712L145.001 170.991L145.258 171.269L145.515 171.547L145.771 171.824L146.026 172.1L146.281 172.375L146.534 172.649L146.787 172.923L147.039 173.195L147.291 173.467L147.541 173.738L147.791 174.008L148.04 174.277L148.138 174.384L128.916 192.16C120.954 199.523 120.468 211.946 127.831 219.908C135.194 227.871 147.618 228.356 155.58 220.993L174.802 203.217L174.846 203.264L175 203.431L175.154 203.597L175.307 203.762L175.459 203.927L175.61 204.091L175.761 204.254L175.912 204.417L176.062 204.579L176.211 204.74L176.359 204.9L176.507 205.06L176.654 205.219L176.801 205.378L176.947 205.536L177.092 205.693L177.237 205.849L177.381 206.005L177.524 206.16L177.667 206.315L177.809 206.469L177.951 206.622L178.092 206.774L178.232 206.926L178.372 207.077L178.511 207.228L178.65 207.378L178.788 207.527L178.925 207.675L179.062 207.823L179.198 207.97L179.334 208.117L179.469 208.263L179.603 208.408L179.737 208.553L179.87 208.697L180.002 208.84L180.134 208.982L180.265 209.124L180.396 209.266L180.526 209.406L180.656 209.547L180.785 209.686L180.913 209.825L181.041 209.963L181.168 210.1L181.294 210.237L181.42 210.373L181.546 210.509L181.67 210.644L181.795 210.778L181.918 210.912L182.041 211.045L182.164 211.177L182.286 211.309L182.407 211.44L182.528 211.571L182.648 211.7L182.767 211.83L182.886 211.958L183.004 212.086L183.122 212.214L183.24 212.34L183.356 212.467L183.472 212.592L183.588 212.717L183.69 212.828L164.468 230.604C151.198 242.876 130.492 242.067 118.22 228.797C105.948 215.526 106.758 194.82 120.028 182.549ZM214.332 139.916C221.695 147.878 221.209 160.302 213.247 167.665L194.025 185.441L194.068 185.488L194.223 185.655L194.376 185.821L194.529 185.986L194.681 186.151L194.833 186.315L194.984 186.478L195.134 186.641L195.284 186.802L195.433 186.964L195.581 187.124L195.729 187.284L195.876 187.443L196.023 187.602L196.169 187.76L196.314 187.917L196.459 188.073L196.603 188.229L196.747 188.384L196.889 188.539L197.032 188.693L197.173 188.846L197.314 188.998L197.455 189.15L197.595 189.301L197.734 189.452L197.872 189.601L198.01 189.751L198.148 189.899L198.284 190.047L198.42 190.194L198.556 190.341L198.691 190.487L198.825 190.632L198.959 190.776L199.092 190.92L199.225 191.064L199.356 191.206L199.488 191.348L199.618 191.49L199.749 191.63L199.878 191.77L200.007 191.91L200.135 192.049L200.263 192.187L200.39 192.324L200.517 192.461L200.643 192.597L200.768 192.733L200.893 192.868L201.017 193.002L201.141 193.136L201.264 193.269L201.386 193.401L201.508 193.533L201.629 193.664L201.75 193.794L201.87 193.924L201.989 194.054L202.108 194.182L202.227 194.31L202.345 194.438L202.462 194.564L202.578 194.69L202.695 194.816L202.81 194.941L202.913 195.052L222.135 177.276C235.405 165.004 236.215 144.298 223.943 131.028C211.671 117.758 190.965 116.948 177.695 129.22L158.472 146.996L158.633 147.17L158.908 147.467L159.181 147.762L159.453 148.057L159.725 148.351L159.996 148.644L160.266 148.936L160.536 149.227L160.804 149.518L161.072 149.807L161.339 150.096L161.605 150.384L161.87 150.671L162.135 150.957L162.399 151.242L162.662 151.526L162.924 151.81L163.185 152.093L163.446 152.374L163.706 152.655L163.965 152.936L164.223 153.215L164.481 153.493L164.737 153.771L164.993 154.048L165.249 154.324L165.503 154.599L165.757 154.873L166.01 155.146L166.262 155.419L166.513 155.691L166.763 155.962L167.013 156.232L167.262 156.501L167.361 156.607L186.583 138.831C194.545 131.468 206.969 131.954 214.332 139.916ZM147.415 192.883C144.761 195.337 144.599 199.478 147.054 202.132C149.508 204.786 153.649 204.948 156.303 202.494L194.748 166.942C197.402 164.487 197.564 160.346 195.109 157.692C192.655 155.038 188.514 154.876 185.86 157.331L147.415 192.883Z" fill="black"/>
<path fill-rule="evenodd" clip-rule="evenodd" d="M120.028 182.549L139.25 164.772L139.411 164.946L139.685 165.243L139.959 165.538L140.231 165.833L140.503 166.127L140.774 166.42L141.044 166.712L141.313 167.003L141.582 167.294L141.849 167.583L142.116 167.872L142.383 168.16L142.648 168.447L142.913 168.733L143.176 169.018L143.439 169.302L143.702 169.586L143.963 169.869L144.224 170.151L144.484 170.432L144.743 170.712L145.001 170.991L145.258 171.269L145.515 171.547L145.771 171.824L146.026 172.1L146.281 172.375L146.534 172.649L146.787 172.923L147.039 173.195L147.291 173.467L147.541 173.738L147.791 174.008L148.04 174.277L148.138 174.384L128.916 192.16C120.954 199.523 120.468 211.946 127.831 219.908C135.194 227.871 147.618 228.356 155.58 220.993L174.802 203.217L174.846 203.264L175 203.431L175.154 203.597L175.307 203.762L175.459 203.927L175.61 204.091L175.761 204.254L175.912 204.417L176.062 204.579L176.211 204.74L176.359 204.9L176.507 205.06L176.654 205.219L176.801 205.378L176.947 205.536L177.092 205.693L177.237 205.849L177.381 206.005L177.524 206.16L177.667 206.315L177.809 206.469L177.951 206.622L178.092 206.774L178.232 206.926L178.372 207.077L178.511 207.228L178.65 207.378L178.788 207.527L178.925 207.675L179.062 207.823L179.198 207.97L179.334 208.117L179.469 208.263L179.603 208.408L179.737 208.553L179.87 208.697L180.002 208.84L180.134 208.982L180.265 209.124L180.396 209.266L180.526 209.406L180.656 209.547L180.785 209.686L180.913 209.825L181.041 209.963L181.168 210.1L181.294 210.237L181.42 210.373L181.546 210.509L181.67 210.644L181.795 210.778L181.918 210.912L182.041 211.045L182.164 211.177L182.286 211.309L182.407 211.44L182.528 211.571L182.648 211.7L182.767 211.83L182.886 211.958L183.004 212.086L183.122 212.214L183.24 212.34L183.356 212.467L183.472 212.592L183.588 212.717L183.69 212.828L164.468 230.604C151.198 242.876 130.492 242.067 118.22 228.797C105.948 215.526 106.758 194.82 120.028 182.549ZM214.332 139.916C221.695 147.878 221.209 160.302 213.247 167.665L194.025 185.441L194.068 185.488L194.223 185.655L194.376 185.821L194.529 185.986L194.681 186.151L194.833 186.315L194.984 186.478L195.134 186.641L195.284 186.802L195.433 186.964L195.581 187.124L195.729 187.284L195.876 187.443L196.023 187.602L196.169 187.76L196.314 187.917L196.459 188.073L196.603 188.229L196.747 188.384L196.889 188.539L197.032 188.693L197.173 188.846L197.314 188.998L197.455 189.15L197.595 189.301L197.734 189.452L197.872 189.601L198.01 189.751L198.148 189.899L198.284 190.047L198.42 190.194L198.556 190.341L198.691 190.487L198.825 190.632L198.959 190.776L199.092 190.92L199.225 191.064L199.356 191.206L199.488 191.348L199.618 191.49L199.749 191.63L199.878 191.77L200.007 191.91L200.135 192.049L200.263 192.187L200.39 192.324L200.517 192.461L200.643 192.597L200.768 192.733L200.893 192.868L201.017 193.002L201.141 193.136L201.264 193.269L201.386 193.401L201.508 193.533L201.629 193.664L201.75 193.794L201.87 193.924L201.989 194.054L202.108 194.182L202.227 194.31L202.345 194.438L202.462 194.564L202.578 194.69L202.695 194.816L202.81 194.941L202.913 195.052L222.135 177.276C235.405 165.004 236.215 144.298 223.943 131.028C211.671 117.758 190.965 116.948 177.695 129.22L158.472 146.996L158.633 147.17L158.908 147.467L159.181 147.762L159.453 148.057L159.725 148.351L159.996 148.644L160.266 148.936L160.536 149.227L160.804 149.518L161.072 149.807L161.339 150.096L161.605 150.384L161.87 150.671L162.135 150.957L162.399 151.242L162.662 151.526L162.924 151.81L163.185 152.093L163.446 152.374L163.706 152.655L163.965 152.936L164.223 153.215L164.481 153.493L164.737 153.771L164.993 154.048L165.249 154.324L165.503 154.599L165.757 154.873L166.01 155.146L166.262 155.419L166.513 155.691L166.763 155.962L167.013 156.232L167.262 156.501L167.361 156.607L186.583 138.831C194.545 131.468 206.969 131.954 214.332 139.916ZM147.415 192.883C144.761 195.337 144.599 199.478 147.054 202.132C149.508 204.786 153.649 204.948 156.303 202.494L194.748 166.942C197.402 164.487 197.564 160.346 195.109 157.692C192.655 155.038 188.514 154.876 185.86 157.331L147.415 192.883Z" fill="#203EDF" fill-opacity="0.3"/>
<path fill-rule="evenodd" clip-rule="evenodd" d="M120.028 182.549L139.25 164.772L139.411 164.946L139.685 165.243L139.959 165.538L140.231 165.833L140.503 166.127L140.774 166.42L141.044 166.712L141.313 167.003L141.582 167.294L141.849 167.583L142.116 167.872L142.383 168.16L142.648 168.447L142.913 168.733L143.176 169.018L143.439 169.302L143.702 169.586L143.963 169.869L144.224 170.151L144.484 170.432L144.743 170.712L145.001 170.991L145.258 171.269L145.515 171.547L145.771 171.824L146.026 172.1L146.281 172.375L146.534 172.649L146.787 172.923L147.039 173.195L147.291 173.467L147.541 173.738L147.791 174.008L148.04 174.277L148.138 174.384L128.916 192.16C120.954 199.523 120.468 211.946 127.831 219.908C135.194 227.871 147.618 228.356 155.58 220.993L174.802 203.217L174.846 203.264L175 203.431L175.154 203.597L175.307 203.762L175.459 203.927L175.61 204.091L175.761 204.254L175.912 204.417L176.062 204.579L176.211 204.74L176.359 204.9L176.507 205.06L176.654 205.219L176.801 205.378L176.947 205.536L177.092 205.693L177.237 205.849L177.381 206.005L177.524 206.16L177.667 206.315L177.809 206.469L177.951 206.622L178.092 206.774L178.232 206.926L178.372 207.077L178.511 207.228L178.65 207.378L178.788 207.527L178.925 207.675L179.062 207.823L179.198 207.97L179.334 208.117L179.469 208.263L179.603 208.408L179.737 208.553L179.87 208.697L180.002 208.84L180.134 208.982L180.265 209.124L180.396 209.266L180.526 209.406L180.656 209.547L180.785 209.686L180.913 209.825L181.041 209.963L181.168 210.1L181.294 210.237L181.42 210.373L181.546 210.509L181.67 210.644L181.795 210.778L181.918 210.912L182.041 211.045L182.164 211.177L182.286 211.309L182.407 211.44L182.528 211.571L182.648 211.7L182.767 211.83L182.886 211.958L183.004 212.086L183.122 212.214L183.24 212.34L183.356 212.467L183.472 212.592L183.588 212.717L183.69 212.828L164.468 230.604C151.198 242.876 130.492 242.067 118.22 228.797C105.948 215.526 106.758 194.82 120.028 182.549ZM214.332 139.916C221.695 147.878 221.209 160.302 213.247 167.665L194.025 185.441L194.068 185.488L194.223 185.655L194.376 185.821L194.529 185.986L194.681 186.151L194.833 186.315L194.984 186.478L195.134 186.641L195.284 186.802L195.433 186.964L195.581 187.124L195.729 187.284L195.876 187.443L196.023 187.602L196.169 187.76L196.314 187.917L196.459 188.073L196.603 188.229L196.747 188.384L196.889 188.539L197.032 188.693L197.173 188.846L197.314 188.998L197.455 189.15L197.595 189.301L197.734 189.452L197.872 189.601L198.01 189.751L198.148 189.899L198.284 190.047L198.42 190.194L198.556 190.341L198.691 190.487L198.825 190.632L198.959 190.776L199.092 190.92L199.225 191.064L199.356 191.206L199.488 191.348L199.618 191.49L199.749 191.63L199.878 191.77L200.007 191.91L200.135 192.049L200.263 192.187L200.39 192.324L200.517 192.461L200.643 192.597L200.768 192.733L200.893 192.868L201.017 193.002L201.141 193.136L201.264 193.269L201.386 193.401L201.508 193.533L201.629 193.664L201.75 193.794L201.87 193.924L201.989 194.054L202.108 194.182L202.227 194.31L202.345 194.438L202.462 194.564L202.578 194.69L202.695 194.816L202.81 194.941L202.913 195.052L222.135 177.276C235.405 165.004 236.215 144.298 223.943 131.028C211.671 117.758 190.965 116.948 177.695 129.22L158.472 146.996L158.633 147.17L158.908 147.467L159.181 147.762L159.453 148.057L159.725 148.351L159.996 148.644L160.266 148.936L160.536 149.227L160.804 149.518L161.072 149.807L161.339 150.096L161.605 150.384L161.87 150.671L162.135 150.957L162.399 151.242L162.662 151.526L162.924 151.81L163.185 152.093L163.446 152.374L163.706 152.655L163.965 152.936L164.223 153.215L164.481 153.493L164.737 153.771L164.993 154.048L165.249 154.324L165.503 154.599L165.757 154.873L166.01 155.146L166.262 155.419L166.513 155.691L166.763 155.962L167.013 156.232L167.262 156.501L167.361 156.607L186.583 138.831C194.545 131.468 206.969 131.954 214.332 139.916ZM147.415 192.883C144.761 195.337 144.599 199.478 147.054 202.132C149.508 204.786 153.649 204.948 156.303 202.494L194.748 166.942C197.402 164.487 197.564 160.346 195.109 157.692C192.655 155.038 188.514 154.876 185.86 157.331L147.415 192.883Z" fill="white" fill-opacity="0.05"/>
</svg>
