<svg width="256" height="256" viewBox="0 0 256 256" fill="none" xmlns="http://www.w3.org/2000/svg">
<rect x="58" y="23" width="140.257" height="172.223" rx="5" fill="#1BB7EA"/>
<path d="M87.842 55.6787C87.842 52.9173 90.0806 50.6787 92.842 50.6787H217.131C219.892 50.6787 222.131 52.9173 222.131 55.6787V183.5H189.5C186.739 183.5 184.5 185.739 184.5 188.5V219.827H92.842C90.0806 219.827 87.842 217.588 87.842 214.827V55.6787Z" fill="#DADEE0"/>
<rect x="120.668" y="84.5084" width="68.6366" height="6.15084" rx="3.07542" fill="#1F4254"/>
<rect x="120.668" y="109.112" width="68.6366" height="6.15084" rx="3.07542" fill="#1F4254"/>
<rect x="120.668" y="133.715" width="68.6366" height="6.15084" rx="3.07542" fill="#1F4254"/>
<rect x="120.668" y="158.318" width="38.7946" height="6.15084" rx="3.07542" fill="#1F4254"/>
<path d="M184.5 219.5L222 183.5H184.5V219.5Z" fill="#F1F1F1"/>
<path fill-rule="evenodd" clip-rule="evenodd" d="M128.028 184.76L147.25 166.984L147.411 167.158L147.685 167.454L147.959 167.75L148.231 168.045L148.503 168.338L148.774 168.631L149.044 168.923L149.313 169.215L149.582 169.505L149.849 169.795L150.116 170.083L150.383 170.371L150.648 170.658L150.913 170.944L151.176 171.229L151.439 171.514L151.702 171.797L151.963 172.08L152.224 172.362L152.484 172.643L152.743 172.923L153.001 173.202L153.258 173.481L153.515 173.759L153.771 174.035L154.026 174.311L154.281 174.586L154.534 174.861L154.787 175.134L155.039 175.407L155.291 175.678L155.541 175.949L155.791 176.219L156.04 176.489L156.138 176.595L136.916 194.371C128.954 201.734 128.468 214.158 135.831 222.12C143.194 230.082 155.618 230.568 163.58 223.205L182.802 205.428L182.846 205.476L183 205.642L183.154 205.808L183.307 205.974L183.459 206.138L183.61 206.302L183.761 206.465L183.912 206.628L184.062 206.79L184.211 206.951L184.359 207.112L184.507 207.272L184.654 207.431L184.801 207.589L184.947 207.747L185.092 207.904L185.237 208.061L185.381 208.217L185.524 208.372L185.667 208.526L185.809 208.68L185.951 208.833L186.092 208.986L186.232 209.138L186.372 209.289L186.511 209.439L186.65 209.589L186.788 209.738L186.925 209.887L187.062 210.035L187.198 210.182L187.334 210.328L187.469 210.474L187.603 210.619L187.737 210.764L187.87 210.908L188.002 211.051L188.134 211.194L188.265 211.336L188.396 211.477L188.526 211.618L188.656 211.758L188.785 211.897L188.913 212.036L189.041 212.174L189.168 212.312L189.294 212.449L189.42 212.585L189.546 212.72L189.67 212.855L189.795 212.99L189.918 213.123L190.041 213.256L190.164 213.389L190.286 213.52L190.407 213.652L190.528 213.782L190.648 213.912L190.767 214.041L190.886 214.17L191.004 214.298L191.122 214.425L191.24 214.552L191.356 214.678L191.472 214.804L191.588 214.928L191.69 215.04L172.468 232.816C159.198 245.088 138.492 244.278 126.22 231.008C113.948 217.738 114.758 197.032 128.028 184.76ZM222.332 142.127C229.695 150.09 229.209 162.513 221.247 169.876L202.025 187.652L202.068 187.7L202.223 187.866L202.376 188.032L202.529 188.198L202.681 188.362L202.833 188.526L202.984 188.689L203.134 188.852L203.284 189.014L203.433 189.175L203.581 189.336L203.729 189.495L203.876 189.655L204.023 189.813L204.169 189.971L204.314 190.128L204.459 190.285L204.603 190.44L204.747 190.596L204.889 190.75L205.032 190.904L205.173 191.057L205.314 191.21L205.455 191.361L205.595 191.513L205.734 191.663L205.872 191.813L206.01 191.962L206.148 192.111L206.284 192.258L206.42 192.406L206.556 192.552L206.691 192.698L206.825 192.843L206.959 192.988L207.092 193.132L207.225 193.275L207.356 193.418L207.488 193.56L207.618 193.701L207.749 193.842L207.878 193.982L208.007 194.121L208.135 194.26L208.263 194.398L208.39 194.536L208.517 194.672L208.643 194.809L208.768 194.944L208.893 195.079L209.017 195.213L209.141 195.347L209.264 195.48L209.386 195.612L209.508 195.744L209.629 195.875L209.75 196.006L209.87 196.136L209.989 196.265L210.108 196.394L210.227 196.522L210.345 196.649L210.462 196.776L210.578 196.902L210.695 197.027L210.81 197.152L210.913 197.263L230.135 179.487C243.405 167.215 244.215 146.51 231.943 133.239C219.671 119.969 198.965 119.16 185.695 131.432L166.472 149.208L166.633 149.382L166.908 149.678L167.181 149.974L167.453 150.268L167.725 150.562L167.996 150.855L168.266 151.147L168.536 151.439L168.804 151.729L169.072 152.018L169.339 152.307L169.605 152.595L169.87 152.882L170.135 153.168L170.399 153.453L170.662 153.738L170.924 154.021L171.185 154.304L171.446 154.586L171.706 154.867L171.965 155.147L172.223 155.426L172.481 155.705L172.737 155.982L172.993 156.259L173.249 156.535L173.503 156.81L173.757 157.084L174.01 157.358L174.262 157.63L174.513 157.902L174.763 158.173L175.013 158.443L175.262 158.712L175.361 158.819L194.583 141.043C202.545 133.68 214.969 134.165 222.332 142.127ZM155.415 195.094C152.761 197.549 152.599 201.69 155.054 204.344C157.508 206.998 161.649 207.16 164.303 204.705L202.748 169.153C205.402 166.699 205.564 162.558 203.109 159.903C200.655 157.249 196.514 157.088 193.86 159.542L155.415 195.094Z" fill="black"/>
<path fill-rule="evenodd" clip-rule="evenodd" d="M128.028 184.76L147.25 166.984L147.411 167.158L147.685 167.454L147.959 167.75L148.231 168.045L148.503 168.338L148.774 168.631L149.044 168.923L149.313 169.215L149.582 169.505L149.849 169.795L150.116 170.083L150.383 170.371L150.648 170.658L150.913 170.944L151.176 171.229L151.439 171.514L151.702 171.797L151.963 172.08L152.224 172.362L152.484 172.643L152.743 172.923L153.001 173.202L153.258 173.481L153.515 173.759L153.771 174.035L154.026 174.311L154.281 174.586L154.534 174.861L154.787 175.134L155.039 175.407L155.291 175.678L155.541 175.949L155.791 176.219L156.04 176.489L156.138 176.595L136.916 194.371C128.954 201.734 128.468 214.158 135.831 222.12C143.194 230.082 155.618 230.568 163.58 223.205L182.802 205.428L182.846 205.476L183 205.642L183.154 205.808L183.307 205.974L183.459 206.138L183.61 206.302L183.761 206.465L183.912 206.628L184.062 206.79L184.211 206.951L184.359 207.112L184.507 207.272L184.654 207.431L184.801 207.589L184.947 207.747L185.092 207.904L185.237 208.061L185.381 208.217L185.524 208.372L185.667 208.526L185.809 208.68L185.951 208.833L186.092 208.986L186.232 209.138L186.372 209.289L186.511 209.439L186.65 209.589L186.788 209.738L186.925 209.887L187.062 210.035L187.198 210.182L187.334 210.328L187.469 210.474L187.603 210.619L187.737 210.764L187.87 210.908L188.002 211.051L188.134 211.194L188.265 211.336L188.396 211.477L188.526 211.618L188.656 211.758L188.785 211.897L188.913 212.036L189.041 212.174L189.168 212.312L189.294 212.449L189.42 212.585L189.546 212.72L189.67 212.855L189.795 212.99L189.918 213.123L190.041 213.256L190.164 213.389L190.286 213.52L190.407 213.652L190.528 213.782L190.648 213.912L190.767 214.041L190.886 214.17L191.004 214.298L191.122 214.425L191.24 214.552L191.356 214.678L191.472 214.804L191.588 214.928L191.69 215.04L172.468 232.816C159.198 245.088 138.492 244.278 126.22 231.008C113.948 217.738 114.758 197.032 128.028 184.76ZM222.332 142.127C229.695 150.09 229.209 162.513 221.247 169.876L202.025 187.652L202.068 187.7L202.223 187.866L202.376 188.032L202.529 188.198L202.681 188.362L202.833 188.526L202.984 188.689L203.134 188.852L203.284 189.014L203.433 189.175L203.581 189.336L203.729 189.495L203.876 189.655L204.023 189.813L204.169 189.971L204.314 190.128L204.459 190.285L204.603 190.44L204.747 190.596L204.889 190.75L205.032 190.904L205.173 191.057L205.314 191.21L205.455 191.361L205.595 191.513L205.734 191.663L205.872 191.813L206.01 191.962L206.148 192.111L206.284 192.258L206.42 192.406L206.556 192.552L206.691 192.698L206.825 192.843L206.959 192.988L207.092 193.132L207.225 193.275L207.356 193.418L207.488 193.56L207.618 193.701L207.749 193.842L207.878 193.982L208.007 194.121L208.135 194.26L208.263 194.398L208.39 194.536L208.517 194.672L208.643 194.809L208.768 194.944L208.893 195.079L209.017 195.213L209.141 195.347L209.264 195.48L209.386 195.612L209.508 195.744L209.629 195.875L209.75 196.006L209.87 196.136L209.989 196.265L210.108 196.394L210.227 196.522L210.345 196.649L210.462 196.776L210.578 196.902L210.695 197.027L210.81 197.152L210.913 197.263L230.135 179.487C243.405 167.215 244.215 146.51 231.943 133.239C219.671 119.969 198.965 119.16 185.695 131.432L166.472 149.208L166.633 149.382L166.908 149.678L167.181 149.974L167.453 150.268L167.725 150.562L167.996 150.855L168.266 151.147L168.536 151.439L168.804 151.729L169.072 152.018L169.339 152.307L169.605 152.595L169.87 152.882L170.135 153.168L170.399 153.453L170.662 153.738L170.924 154.021L171.185 154.304L171.446 154.586L171.706 154.867L171.965 155.147L172.223 155.426L172.481 155.705L172.737 155.982L172.993 156.259L173.249 156.535L173.503 156.81L173.757 157.084L174.01 157.358L174.262 157.63L174.513 157.902L174.763 158.173L175.013 158.443L175.262 158.712L175.361 158.819L194.583 141.043C202.545 133.68 214.969 134.165 222.332 142.127ZM155.415 195.094C152.761 197.549 152.599 201.69 155.054 204.344C157.508 206.998 161.649 207.16 164.303 204.705L202.748 169.153C205.402 166.699 205.564 162.558 203.109 159.903C200.655 157.249 196.514 157.088 193.86 159.542L155.415 195.094Z" fill="#203EDF" fill-opacity="0.3"/>
<path fill-rule="evenodd" clip-rule="evenodd" d="M128.028 184.76L147.25 166.984L147.411 167.158L147.685 167.454L147.959 167.75L148.231 168.045L148.503 168.338L148.774 168.631L149.044 168.923L149.313 169.215L149.582 169.505L149.849 169.795L150.116 170.083L150.383 170.371L150.648 170.658L150.913 170.944L151.176 171.229L151.439 171.514L151.702 171.797L151.963 172.08L152.224 172.362L152.484 172.643L152.743 172.923L153.001 173.202L153.258 173.481L153.515 173.759L153.771 174.035L154.026 174.311L154.281 174.586L154.534 174.861L154.787 175.134L155.039 175.407L155.291 175.678L155.541 175.949L155.791 176.219L156.04 176.489L156.138 176.595L136.916 194.371C128.954 201.734 128.468 214.158 135.831 222.12C143.194 230.082 155.618 230.568 163.58 223.205L182.802 205.428L182.846 205.476L183 205.642L183.154 205.808L183.307 205.974L183.459 206.138L183.61 206.302L183.761 206.465L183.912 206.628L184.062 206.79L184.211 206.951L184.359 207.112L184.507 207.272L184.654 207.431L184.801 207.589L184.947 207.747L185.092 207.904L185.237 208.061L185.381 208.217L185.524 208.372L185.667 208.526L185.809 208.68L185.951 208.833L186.092 208.986L186.232 209.138L186.372 209.289L186.511 209.439L186.65 209.589L186.788 209.738L186.925 209.887L187.062 210.035L187.198 210.182L187.334 210.328L187.469 210.474L187.603 210.619L187.737 210.764L187.87 210.908L188.002 211.051L188.134 211.194L188.265 211.336L188.396 211.477L188.526 211.618L188.656 211.758L188.785 211.897L188.913 212.036L189.041 212.174L189.168 212.312L189.294 212.449L189.42 212.585L189.546 212.72L189.67 212.855L189.795 212.99L189.918 213.123L190.041 213.256L190.164 213.389L190.286 213.52L190.407 213.652L190.528 213.782L190.648 213.912L190.767 214.041L190.886 214.17L191.004 214.298L191.122 214.425L191.24 214.552L191.356 214.678L191.472 214.804L191.588 214.928L191.69 215.04L172.468 232.816C159.198 245.088 138.492 244.278 126.22 231.008C113.948 217.738 114.758 197.032 128.028 184.76ZM222.332 142.127C229.695 150.09 229.209 162.513 221.247 169.876L202.025 187.652L202.068 187.7L202.223 187.866L202.376 188.032L202.529 188.198L202.681 188.362L202.833 188.526L202.984 188.689L203.134 188.852L203.284 189.014L203.433 189.175L203.581 189.336L203.729 189.495L203.876 189.655L204.023 189.813L204.169 189.971L204.314 190.128L204.459 190.285L204.603 190.44L204.747 190.596L204.889 190.75L205.032 190.904L205.173 191.057L205.314 191.21L205.455 191.361L205.595 191.513L205.734 191.663L205.872 191.813L206.01 191.962L206.148 192.111L206.284 192.258L206.42 192.406L206.556 192.552L206.691 192.698L206.825 192.843L206.959 192.988L207.092 193.132L207.225 193.275L207.356 193.418L207.488 193.56L207.618 193.701L207.749 193.842L207.878 193.982L208.007 194.121L208.135 194.26L208.263 194.398L208.39 194.536L208.517 194.672L208.643 194.809L208.768 194.944L208.893 195.079L209.017 195.213L209.141 195.347L209.264 195.48L209.386 195.612L209.508 195.744L209.629 195.875L209.75 196.006L209.87 196.136L209.989 196.265L210.108 196.394L210.227 196.522L210.345 196.649L210.462 196.776L210.578 196.902L210.695 197.027L210.81 197.152L210.913 197.263L230.135 179.487C243.405 167.215 244.215 146.51 231.943 133.239C219.671 119.969 198.965 119.16 185.695 131.432L166.472 149.208L166.633 149.382L166.908 149.678L167.181 149.974L167.453 150.268L167.725 150.562L167.996 150.855L168.266 151.147L168.536 151.439L168.804 151.729L169.072 152.018L169.339 152.307L169.605 152.595L169.87 152.882L170.135 153.168L170.399 153.453L170.662 153.738L170.924 154.021L171.185 154.304L171.446 154.586L171.706 154.867L171.965 155.147L172.223 155.426L172.481 155.705L172.737 155.982L172.993 156.259L173.249 156.535L173.503 156.81L173.757 157.084L174.01 157.358L174.262 157.63L174.513 157.902L174.763 158.173L175.013 158.443L175.262 158.712L175.361 158.819L194.583 141.043C202.545 133.68 214.969 134.165 222.332 142.127ZM155.415 195.094C152.761 197.549 152.599 201.69 155.054 204.344C157.508 206.998 161.649 207.16 164.303 204.705L202.748 169.153C205.402 166.699 205.564 162.558 203.109 159.903C200.655 157.249 196.514 157.088 193.86 159.542L155.415 195.094Z" fill="white" fill-opacity="0.05"/>
</svg>
